<?xml version="1.0" encoding="utf-8"?>
<!-- Generator: Adobe Illustrator 18.1.0, SVG Export Plug-In . SVG Version: 6.00 Build 0)  -->
<!DOCTYPE svg PUBLIC "-//W3C//DTD SVG 1.1//EN" "http://www.w3.org/Graphics/SVG/1.1/DTD/svg11.dtd">
<svg version="1.1" id="Ebene_1" xmlns="http://www.w3.org/2000/svg" xmlns:xlink="http://www.w3.org/1999/xlink" x="0px" y="0px"
	 viewBox="0 0 100 78" enable-background="new 0 0 100 78" xml:space="preserve">
<g>
	<polygon fill="#1D1D1B" points="17.3,62.9 22.7,62.9 22.7,61.9 18.3,61.9 18.3,52.3 17.3,52.3 	"/>
	<path fill="#1D1D1B" d="M22.9,62.9h1.1l1.5-3.6h4.9l1.5,3.6h1.2l-4.6-10.6h-1.2L22.9,62.9L22.9,62.9z M28.1,53.5l2,4.9H26
		L28.1,53.5L28.1,53.5z"/>
	<polygon fill="#1D1D1B" points="34,62.9 35.1,62.9 35.1,53.6 35.1,53.6 41.4,62.9 42.5,62.9 42.5,52.3 41.4,52.3 41.4,61.1 
		41.4,61.1 35.5,52.3 34,52.3 	"/>
	<path fill="#1D1D1B" d="M44.1,62.9h3.1c1.3,0,2.6-0.3,3.5-0.9c2-1.3,2.4-3.4,2.4-4.4c0-1.3-0.5-3.3-2.4-4.5
		c-0.9-0.6-2.1-0.9-3.5-0.9h-3.1V62.9L44.1,62.9z M45.2,53.3h1.5c1.6,0,2.5,0.2,3.5,0.8c1.1,0.8,1.8,2.1,1.8,3.5c0,1.8-1,3-1.7,3.5
		c-1.2,0.9-2.7,0.9-3.6,0.9h-1.5L45.2,53.3L45.2,53.3z"/>
	<path fill="#1D1D1B" d="M0,77.3h2.7c1.2,0,1.9-0.1,2.9-0.6c0.7-0.5,1.2-1.4,1.2-2.5C6.7,73,6,72.1,5,71.6c0.4-0.3,1.2-0.9,1.2-2.1
		c0-0.4-0.1-2.8-3.5-2.8H0V77.3L0,77.3z M1.1,72.2h1.3c1.1,0,1.6,0,2.1,0.2c0.7,0.3,1.2,1,1.2,1.8c0,0.8-0.5,1.5-1.1,1.8
		c-0.6,0.2-1.1,0.3-2,0.3H1.1L1.1,72.2L1.1,72.2z M1.1,67.6h1.4c1.1,0,1.7,0.2,2.1,0.7c0.3,0.3,0.4,0.7,0.4,1.2
		c0,0.6-0.4,1.2-0.9,1.5c-0.5,0.3-1,0.3-1.8,0.3H1.1L1.1,67.6L1.1,67.6z"/>
	<path fill="#1D1D1B" d="M7.9,77.3h1.1v-9.6h1.8c0.9,0,1.4,0.1,2.1,0.4c0.7,0.3,1.2,1.2,1.2,2c0,0.9-0.6,1.9-1.7,2.2
		c-0.5,0.1-0.9,0.2-2.3,0.2l3.6,4.8h1.3l-3-4c2-0.1,3.2-1.7,3.2-3.2c0-1.3-0.7-2.5-1.9-3c-0.5-0.2-1.2-0.4-2.6-0.4H7.9L7.9,77.3
		L7.9,77.3z"/>
	<path fill="#1D1D1B" d="M15.1,77.3h1.1l1.5-3.6h4.9l1.5,3.6h1.2l-4.6-10.6h-1.2L15.1,77.3L15.1,77.3z M20.2,67.9l2,4.9h-4.1
		L20.2,67.9L20.2,67.9z"/>
	<polygon fill="#1D1D1B" points="26.2,77.3 27.2,77.3 27.2,68 27.3,68 33.6,77.3 34.6,77.3 34.6,66.7 33.6,66.7 33.6,75.5 
		33.5,75.5 27.6,66.7 26.2,66.7 	"/>
	<path fill="#1D1D1B" d="M36.3,77.3h3.1c1.3,0,2.6-0.3,3.5-0.9c2-1.3,2.4-3.4,2.4-4.4c0-1.3-0.5-3.3-2.4-4.5
		c-0.9-0.6-2.1-0.9-3.5-0.9h-3.1V77.3L36.3,77.3z M37.3,67.6h1.5c1.6,0,2.5,0.2,3.5,0.8c1.1,0.8,1.8,2.1,1.8,3.5c0,1.8-1,3-1.7,3.5
		c-1.2,0.9-2.7,0.9-3.6,0.9h-1.5V67.6L37.3,67.6z"/>
	<polygon fill="#1D1D1B" points="46.2,77.3 52,77.3 52,76.3 47.3,76.3 47.3,72.4 51.9,72.4 51.9,71.5 47.3,71.5 47.3,67.6 52,67.6 
		52,66.7 46.2,66.7 	"/>
	<polygon fill="#1D1D1B" points="53.7,77.3 54.7,77.3 54.7,68 54.7,68 61,77.3 62.1,77.3 62.1,66.7 61,66.7 61,75.5 61,75.5 
		55.1,66.7 53.7,66.7 	"/>
	<path fill="#1D1D1B" d="M63.7,77.3h2.7c1.2,0,1.9-0.1,2.9-0.6c0.7-0.5,1.2-1.4,1.2-2.5c0-1.2-0.7-2.2-1.8-2.6
		c0.4-0.3,1.2-0.9,1.2-2.1c0-0.4-0.1-2.8-3.5-2.8h-2.7V77.3L63.7,77.3z M64.8,72.2h1.3c1.1,0,1.6,0,2.1,0.2c0.7,0.3,1.2,1,1.2,1.8
		c0,0.8-0.5,1.5-1.1,1.8c-0.6,0.2-1.1,0.3-2,0.3h-1.5L64.8,72.2L64.8,72.2z M64.8,67.6h1.4c1.1,0,1.7,0.2,2.1,0.7
		c0.3,0.3,0.4,0.7,0.4,1.2c0,0.6-0.4,1.2-0.9,1.5c-0.5,0.3-1,0.3-1.8,0.3h-1.3L64.8,67.6L64.8,67.6z"/>
	<path fill="#1D1D1B" d="M71.6,66.7v6.6c0,0.9,0.1,1.6,0.4,2.2c0.7,1.6,2.2,2,3.2,2c1,0,2.5-0.4,3.2-2c0.3-0.6,0.4-1.3,0.4-2.2v-6.6
		h-1.1v6.6c0,0.8-0.1,1.5-0.4,1.9c-0.6,1.2-1.7,1.3-2.2,1.3c-0.5,0-1.5-0.1-2.2-1.3c-0.2-0.4-0.4-1.1-0.4-1.9v-6.6H71.6L71.6,66.7z"
		/>
	<path fill="#1D1D1B" d="M80.3,77.3h1.1v-9.6h1.8c0.9,0,1.4,0.1,2.1,0.4c0.7,0.3,1.2,1.2,1.2,2c0,0.9-0.6,1.9-1.7,2.2
		c-0.5,0.1-0.9,0.2-2.3,0.2l3.6,4.8h1.3l-3-4c2-0.1,3.2-1.7,3.2-3.2c0-1.3-0.7-2.5-1.9-3c-0.5-0.2-1.2-0.4-2.6-0.4h-2.7L80.3,77.3
		L80.3,77.3z"/>
	<path fill="#1D1D1B" d="M92.2,72.4v1h5.9c-0.4,1.5-2,3.1-4.3,3.1c-2.7,0-4.7-2.1-4.7-4.5s1.9-4.5,4.6-4.5c1.8,0,3.2,1,3.8,2h1.2
		c-0.4-1.1-2.2-3-5-3c-3.4,0-5.7,2.7-5.7,5.5c0,2.9,2.5,5.5,5.7,5.5c2.6,0,5.4-1.9,5.6-5.1L92.2,72.4L92.2,72.4z"/>
	<path fill="#E63027" d="M16.8,0.4c1,0.2,2.1,0.2,3.1,0.3L20,0.9c0.5,0,0.9,0.1,1.4,0.2c0,0.1,0.2,0.1,0.2,0.2
		c0.2,0.1,0.5-0.1,0.7,0h0c0,0.1,0.2,0.2,0.3,0.2c0.6,0.1,1.2,0.3,1.8,0.5c0.7,0.2,1.5,0.5,2.3,0.7c0.5,0.1,1.1,0.3,1.6,0.6l0,0
		c1.7,0.6,3.3,1.3,4.9,2.3c0.1,0.1,0.2,0.2,0.2,0.4c-0.1,0.1-0.2,0.3-0.3,0.4c-0.1-0.2-0.2,0.2-0.3,0c-0.1,0-0.2,0.1-0.2,0.1
		c-0.9-0.4-1.7-0.8-2.6-1.1c-0.1-0.1-0.2-0.1-0.3-0.1c-0.4-0.2-0.7-0.3-1.1-0.5c-0.3-0.1-0.7-0.2-1-0.3c-0.1-0.2-0.3-0.1-0.5-0.2
		c-0.7-0.1-1.3-0.2-2-0.2c-0.2,0.1-0.4,0.1-0.6,0.1C23.4,4,22.2,4,21.1,3.8c-0.7-0.3-1.3-0.5-2-0.7c-1-0.4-2-0.8-3.2-1
		c-0.3-0.1-0.6-0.2-0.9-0.4c-0.4-0.1-0.8-0.5-1.3-0.5c-0.3-0.2-0.5-0.6-0.4-1C13.6-0.1,14,0,14.4,0C15.2,0.2,16,0.3,16.8,0.4
		L16.8,0.4z"/>
	<path fill="#E63027" d="M20.5,4.2c-0.1,0-0.1,0.1-0.2,0.1c-0.1,0-0.2,0-0.3-0.1c-0.1-0.1,0-0.2,0-0.3C20.3,4.1,20.4,4.2,20.5,4.2
		L20.5,4.2z"/>
	<path fill="#E63027" d="M16.7,5.6c-0.1,0,0,0.1-0.1,0.1c0.2,0,0.6,0,0.7,0.1c0,0,0,0.1,0,0.1c0-0.1,0.1,0,0.1,0c0,0-0.1,0-0.1,0
		c0.1,0.1,0.2,0,0.3,0c0-0.1-0.1,0-0.1-0.1l0.1,0l0,0c0-0.1,0.2,0,0.2-0.1c-0.1,0-0.2,0-0.3,0l0.1,0l-0.1-0.1
		C17.8,5.9,18,5.8,18.2,6c0.1,0,0.3,0.1,0.3,0l0.1,0c0,0,0,0-0.1,0c0.1,0,0.2,0.1,0.4,0c0.1,0.3,0.6,0.1,0.8,0.4h0.1v0l0.4,0.1
		c0,0,0,0,0,0c0.1-0.1,0.3,0.1,0.4,0.1c0,0,0,0,0,0.1c0.1,0.1,0.2,0,0.2,0c0,0,0,0,0,0c-0.1,0.1-0.3,0-0.4-0.1l0,0
		c0,0-0.1-0.1-0.1,0c-0.1,0-0.2-0.1-0.3-0.1c-0.2-0.1-0.2-0.1-0.4-0.1c0,0,0,0,0,0c0,0-0.1,0-0.2,0c0.1,0.2,0.4,0,0.5,0.2H20
		c0.1,0,0.2,0.1,0.2,0.1c0.2,0.1,0.4,0.2,0.6,0.2l0.1,0l0,0.1c0.2,0,0.4,0.1,0.6,0.2c0.3,0.2,0.8,0.3,1.1,0.5c0.2,0,0.5,0.3,0.7,0.3
		c0.1,0.1,0.3,0.2,0.4,0.2c-0.1,0.1,0.1,0.1,0.2,0.1h0l0,0c0.1,0,0.1,0.1,0.2,0.1c0,0,0,0,0,0c0.2,0.1,0.3,0.1,0.4,0.2
		c0.1,0,0,0,0.1-0.1c0,0.1,0,0.1,0.1,0.2c0,0,0,0,0,0v0l0,0c0,0.1-0.1,0-0.1,0l0.1,0c-0.1,0-0.2-0.2-0.3-0.1c0,0-0.1-0.1-0.2,0
		c0-0.1-0.1-0.1-0.2-0.1c-0.1,0-0.2-0.1-0.2-0.1c0.3,0.2,0.6,0.3,0.9,0.4c0,0.1,0.2,0.1,0.3,0.1c0.1,0.1,0.2,0,0.3,0.1
		c0.1,0,0.2,0.1,0.3,0.1c0,0-0.1,0-0.1,0.1h0.2c-0.2,0.1-0.4-0.1-0.6-0.1c-0.1-0.2-0.5-0.1-0.6-0.3c-0.1,0-0.1-0.1-0.2-0.1l0,0l0,0
		C24.4,9,24.7,9,24.9,9.1c0,0,0.1,0,0.2,0c0.1,0.2,0.4,0.3,0.6,0.2v0c0.2,0,0.4,0.1,0.6,0c0.1,0.1,0,0.1,0,0.1v0
		c-0.2-0.1-0.5-0.2-0.6-0.1c0.3,0.1,0.6,0.1,0.9,0.3c0,0,0.1,0,0.2-0.1c-0.1,0-0.3-0.1-0.3-0.2c0,0,0.1,0.1,0.1,0
		c0,0-0.1-0.1-0.2-0.1c0.2-0.1,0.3,0.2,0.5,0.1l0,0c0.1-0.2,0.2,0.1,0.3,0.2c0,0,0,0.1,0,0.1c0.1-0.1,0-0.2-0.1-0.2H27
		c-0.1-0.1-0.1-0.2-0.2-0.2C26.9,9,27,9.2,27.1,9.2c0.2,0.1,0.2,0.3,0.2,0.5c0,0.3-0.4,0.6-0.6,0.7c0-0.1,0.1-0.1,0.1-0.2
		c-0.1-0.1-0.3,0-0.4-0.1C26.2,10,26.1,10,25.9,10c-0.2-0.1-0.4-0.2-0.6-0.2c0-0.1-0.2-0.1-0.1-0.1c-0.1-0.1-0.1-0.1-0.3-0.2l0,0
		c-0.2,0-0.4-0.1-0.5-0.2l0,0c0-0.1-0.2,0-0.2-0.2c0.1,0,0.1,0.1,0.1,0.1c0.2,0,0.2,0.2,0.3,0l0,0c0,0,0,0-0.1,0
		c0.1-0.1,0.2,0,0.4,0.1c0.2,0.1,0.5,0.2,0.7,0.2c-0.2-0.1-0.5-0.3-0.7-0.2l0,0c-0.2-0.1-0.5-0.3-0.7-0.2l0,0c-0.1,0-0.2,0-0.4,0
		l-0.1,0.1L24,9.2c-0.2,0-0.3-0.1-0.4-0.2c0.1,0,0.2,0,0.3,0c-0.2,0-0.4-0.3-0.7-0.2c0,0,0-0.1-0.1-0.1h-0.1l0-0.1
		c-0.1-0.1-0.1,0-0.2-0.1l-0.2,0c0,0,0.1,0,0-0.1c-0.1-0.1-0.1,0.1-0.1,0c0,0,0,0,0,0c0,0-0.1-0.1-0.1-0.1c0,0,0.1-0.1,0.1-0.1
		c0-0.1-0.1,0-0.1,0l0,0.1c0,0,0,0,0,0c0,0,0,0,0.1,0c0,0-0.1-0.1-0.2,0c-0.1,0-0.2-0.1-0.3-0.1c0.1,0,0.1,0,0.2,0
		c0,0,0-0.1-0.1-0.1h-0.3L22,7.9c0-0.1-0.1,0-0.1,0c0,0,0-0.1,0-0.1c-0.2,0.1-0.3-0.1-0.4-0.1c0,0,0,0,0.1,0l-0.1-0.1
		c0,0-0.2,0-0.2,0c-0.2,0-0.3-0.1-0.4-0.2l-0.2,0l0,0l-0.1,0c0,0,0,0,0,0c0-0.1-0.1,0-0.2,0c0.1-0.1-0.1,0-0.2-0.1
		c0-0.1,0.1,0,0.1,0h0V7.2c-0.2-0.1-0.2,0.1-0.5,0c-0.3-0.1-0.5-0.1-0.8-0.2l0.2,0l0,0c0.1,0,0.2,0,0.2-0.1c-0.1-0.1-0.2,0-0.2,0
		C19.2,7,19.1,6.9,19,7c-0.4-0.1-0.8-0.2-1.1-0.3c-0.3-0.1-0.6-0.1-0.9-0.1c0-0.1-0.2,0-0.2-0.1c0-0.1-0.1,0-0.2,0
		c0,0,0.1,0,0.1-0.1c0-0.1-0.1,0-0.2,0c0-0.1-0.1,0-0.1-0.1c-0.1,0.1-0.1,0-0.2,0c0-0.1-0.1,0-0.1-0.1c-0.1,0-0.1,0-0.1,0.1
		c0,0,0.1,0,0.1,0l-0.1,0v0c-0.3-0.1-0.7-0.1-1-0.4l0-0.1c0,0,0,0,0.1,0c0,0,0-0.1,0-0.1h-0.1c-0.1-0.2,0.2-0.1,0.3-0.2
		C15.8,5.5,16.3,5.7,16.7,5.6L16.7,5.6z"/>
	<polygon fill="#FFFFFF" points="15.1,5.7 15.1,5.7 15.2,5.7 	"/>
	<polygon fill="#E63027" points="17.7,5.7 17.5,5.7 17.6,5.7 	"/>
	<path fill="#E63027" d="M34.8,6c0.9,1.1,1.6,2.2,2.2,3.3l2,3.7c0.2,0.1,0.1,0.4,0.2,0.5l0,0.2l1.3,2.3c-0.1,0.3,0.3,0.4,0.2,0.6
		c0.1,0.4,0.4,0.6,0.5,0.9c0.1,0.3,0.3,0.6,0.5,0.9l0,0c0.2,0.3,0.4,0.6,0.6,1c0,0,0,0,0,0c0.1,0,0,0.2,0.2,0.2h0v0h0c0,0,0,0,0,0
		c0,0.1,0.1,0.2,0.2,0.3l0,0c0,0,0,0,0,0.1c0,0.1,0.2,0.2,0.2,0.3l0,0c0,0.1,0,0.1,0.1,0.2c0.1,0,0-0.1,0-0.1l0.2,0.2
		c-0.1,0-0.1-0.1-0.1-0.1c0,0.1,0.1,0.2,0.2,0.4c0-0.1,0-0.1,0-0.2c0,0.1,0.1,0.1,0.1,0.2l0,0c0,0.1,0,0.1,0.1,0.2c0,0,0-0.1,0-0.1
		l0,0l0,0c0,0,0,0,0,0.1l0.1,0c0.2,0.5,0.6,1,0.8,1.5c0.3,0.4,0.5,1,0.7,1.4c-0.1-0.2-0.3-0.5-0.4-0.7c0-0.1,0-0.2-0.1-0.2
		c0-0.1-0.1-0.2-0.1-0.3h0c0-0.2-0.2-0.4-0.2-0.6c-0.1,0,0,0-0.1,0.1c0.4,0.9,0.9,1.8,1.2,2.8c0.3,0.3,0.3,0.8,0.6,1.1
		c0.4,0.5,0.6,1.1,1,1.6c0-0.1-0.1-0.2-0.1-0.4c-0.2-0.1-0.1-0.4-0.3-0.5c0-0.2-0.1-0.1-0.2-0.2c0,0,0,0,0.1,0
		c-0.1-0.2-0.2-0.4-0.4-0.6h0c-0.3-0.6-0.6-1.3-0.9-2c0.5,1.3,1.2,2.4,1.9,3.6c0.2,0.3,0.6,0.5,0.7,0.9c0.4,0.3,0.9,0.8,1.3,1.2
		c0.4,0.1,0.8,0.2,1.2,0.4c0.5,0,1,0,1.5-0.1l0.2,0.1h1.3c0,0,0.1,0,0.1,0c0,0.1,0.1,0,0.1,0c0.3,0,0.6,0,0.9,0c0,0,0,0.1,0.1,0.1
		c0.4-0.1,0.8-0.1,1.2-0.2l0.4,0.1l1.3-0.1l0.1,0.1c0.4-0.1,0.8,0,1.2-0.2c0.2,0,0.5-0.1,0.7-0.1c0.9-0.1,1.9-0.3,2.8-0.2
		c0.7-0.2,1.2,0.2,1.9,0.1c0,0,0,0.1,0,0.1c0,0-0.1,0-0.2,0.1v0c0.1,0.1,0.3-0.1,0.4,0c0.3,0,0.7,0,1,0.1l0.1,0
		c0.7,0.1,1.5,0.1,2.2,0.4c0.3,0.5,0.4,1.2,0.5,1.8c0,0.2-0.2,0.3-0.2,0.6c-0.1,0.1-0.2,0.2-0.2,0.3c-0.1,0.1-0.4-0.1-0.5,0.1
		c-0.1,0-0.2,0-0.2,0.1l0,0l0-0.4h0c0-0.2,0.1-0.5-0.1-0.7c0-0.2-0.1-0.4,0-0.6c0-0.2-0.2-0.3-0.2-0.4c-0.2,0-0.3,0-0.4-0.2
		c-0.4,0-0.7,0.1-1,0.2c-0.2-0.1-0.5,0-0.6-0.2c-0.2,0-0.4,0-0.6,0.1c-0.4-0.1-0.8-0.2-1.3-0.3c-0.1,0.1,0.1,0.1,0,0.1
		c-0.1,0-0.3,0-0.4,0c-0.1,0.1-0.3-0.1-0.4,0c-0.2,0-0.5,0-0.7-0.1c-0.1,0.1-0.3,0-0.5,0.1c0,0,0,0,0,0c0,0-0.1,0.1-0.2,0
		c-0.2,0-0.4,0.1-0.6,0.2c-0.6,0-1.1,0.4-1.8,0.3c-0.3,0-0.5-0.1-0.8,0.1c-0.5,0-1,0-1.6,0c-0.3,0.1-0.7,0-0.9,0.1
		c-0.2,0.1-0.5,0-0.7,0.2c-0.2-0.1-0.4,0.1-0.6,0.1c-0.1,0.1-0.2,0.1-0.3,0.1c-0.9,0.1-1.7-0.1-2.6,0.1c-0.2,0.1-0.4,0-0.5,0.1
		c-0.2-0.2-0.3,0.1-0.5-0.1c-0.1,0-0.1-0.1-0.2-0.1l-0.1-0.1c0,0,0,0,0,0c-0.1-0.1-0.2-0.2-0.4-0.2c-0.3-0.2-0.7-0.2-1-0.4
		c0,0,0.1,0.1,0.2,0c-0.1-0.1-0.2-0.2-0.2-0.3c-0.1,0-0.1-0.1-0.1-0.1c-0.3-0.3-0.3-0.7-0.6-0.9c0-0.1-0.1,0-0.2-0.1
		c0-0.1-0.1-0.2,0-0.3c-0.1,0-0.2-0.1-0.3-0.2c-0.2,0-0.1-0.2-0.3-0.2l-0.6-0.5c-0.1,0-0.1,0.2-0.3,0.1c-0.3-0.2-0.4-0.5-0.7-0.8
		c0-0.2-0.2-0.2-0.2-0.3c-0.3-0.1-0.4-0.4-0.6-0.5c0-0.1-0.1-0.1,0-0.2c0,0-0.1,0-0.1,0c0,0,0,0,0,0c-0.2-0.2-0.3-0.5-0.3-0.7
		c-0.4-0.5-0.4-1.2-0.8-1.7c-0.1-0.2-0.1-0.6-0.3-0.8c-0.1-0.2-0.1-0.3-0.2-0.5c-0.1-0.2-0.2-0.4-0.2-0.6c-0.2-0.1,0-0.3-0.2-0.4
		c0-0.1-0.3-0.2-0.1-0.4c-0.2-0.1-0.1-0.4-0.3-0.6c-0.1-0.1,0-0.3-0.1-0.4c0-0.2-0.2-0.3-0.2-0.4c-0.1-0.2-0.2-0.3-0.3-0.5
		c-0.2-0.5-0.6-1-0.8-1.5c-0.3-0.5-0.7-1-0.9-1.6c-0.4-0.6-0.7-1.3-1-2c-0.6-1.3-1.1-2.7-1.9-3.9c-0.5-0.9-1-1.9-1.8-2.6
		c-0.2-0.3-0.7,0.1-0.7-0.4c0,0-0.1,0-0.1,0c-0.2-0.3-0.2-0.7-0.1-1c0.1-0.4,0.2-0.7,0.5-1V6.4c0.1,0,0.2-0.3,0.3-0.4
		c0,0,0,0.1,0,0.1c0.1,0,0-0.1,0.1-0.1c0.1-0.3,0.4-0.1,0.6-0.1C34.6,5.9,34.8,5.7,34.8,6L34.8,6z"/>
	<path fill="#FFFFFF" d="M17.8,6.1c0.1-0.1,0.1,0,0.2,0l0.6,0.1C18.3,6.2,18.1,6.1,17.8,6.1L17.8,6.1C17.7,6,17.8,6,17.8,6.1
		L17.8,6.1z"/>
	<path fill="#FFFFFF" d="M18.8,6.2h-0.2C18.7,6.1,18.8,6.2,18.8,6.2L18.8,6.2z"/>
	<path fill="#FFFFFF" d="M19.3,6.4c-0.1,0-0.2,0.1-0.3-0.1c-0.2,0.1-0.3-0.1-0.4-0.1C18.8,6.2,19,6.3,19.3,6.4L19.3,6.4z"/>
	<path fill="#E63027" d="M20.9,6.8C21,7,21.3,6.9,21.5,7v0h-0.2c0,0,0,0,0,0c-0.1-0.1-0.1,0-0.2,0l0.1,0C21.1,7,21,7,20.9,6.8
		c0,0.1-0.1,0.1-0.2,0.1C20.8,6.9,20.8,6.9,20.9,6.8l-0.2,0C20.8,6.8,20.8,6.8,20.9,6.8L20.9,6.8z"/>
	<path fill="#FFFFFF" d="M20.2,7.1c-0.2,0.1-0.1,0.1-0.3,0L20,7.2c0,0-0.1,0-0.1,0c0,0,0,0,0-0.1l0,0C20,7,20.1,7.1,20.2,7.1
		L20.2,7.1z"/>
	<path fill="#E63027" d="M21.8,7.1c0.1,0,0.1,0.2,0.2,0.2c-0.2,0.1-0.2-0.1-0.4-0.1h-0.1l0,0c0-0.1-0.1,0-0.1,0
		C21.6,7.1,21.7,7.2,21.8,7.1L21.8,7.1z"/>
	<path fill="#E63027" d="M22.2,7.3c0,0-0.1,0-0.1,0C22.1,7.2,22.2,7.3,22.2,7.3L22.2,7.3z"/>
	<path fill="#FFFFFF" d="M20.6,7.3C20.6,7.3,20.6,7.4,20.6,7.3L20.6,7.3L20.6,7.3L20.6,7.3L20.6,7.3z"/>
	<path fill="#E63027" d="M22.6,7.5c-0.1,0.1-0.2-0.1-0.4-0.1l0,0l0,0c-0.1,0,0,0,0,0C22.4,7.3,22.4,7.5,22.6,7.5L22.6,7.5z"/>
	<polygon fill="#FFFFFF" points="20.9,7.4 20.9,7.4 21,7.5 	"/>
	<path fill="#FFFFFF" d="M21.2,7.5L21.2,7.5c0.1,0,0.2,0,0.2,0C21.3,7.6,21.3,7.5,21.2,7.5c0.1,0.2,0.3,0,0.3,0.2h-0.1c0,0,0,0,0,0
		C21.3,7.6,21.3,7.6,21.2,7.5l0,0.1c0-0.1-0.1-0.1-0.2-0.1l0-0.1L21.2,7.5L21.2,7.5L21.2,7.5z"/>
	<path fill="#E63027" d="M22.9,7.6C22.8,7.6,22.9,7.6,22.9,7.6l-0.2-0.1L22.9,7.6L22.9,7.6L22.9,7.6z"/>
	<path fill="#E63027" d="M23.6,7.9L23.6,7.9c0,0,0.1,0.1,0.2,0.1l-0.2,0V7.9c-0.1,0.1-0.2,0-0.2,0c0,0,0-0.1-0.1-0.1
		c-0.1,0.1-0.2-0.1-0.3-0.1C23.2,7.7,23.4,7.7,23.6,7.9L23.6,7.9z"/>
	<path fill="#FFFFFF" d="M22,7.9l0.2,0L22,7.9z"/>
	<path fill="#FFFFFF" d="M22.6,8c-0.1,0-0.2,0.2-0.3,0.1C22.4,8,22.5,8.1,22.6,8L22.6,8L22.6,8z"/>
	<path fill="#E63027" d="M24.2,8.2L24.2,8.2L24.2,8.2L24.2,8.2L24.2,8.2c-0.2,0-0.3,0-0.5-0.1C23.8,8,24,8.2,24.2,8.2L24.2,8.2
		L24.2,8.2z"/>
	<path fill="#FFFFFF" d="M22.8,8.2c-0.1,0.1-0.1-0.1-0.2,0C22.7,8.1,22.7,8.2,22.8,8.2L22.8,8.2z"/>
	<polygon fill="#FFFFFF" points="23.5,8.3 23.5,8.2 23.5,8.2 	"/>
	<path fill="#E63027" d="M24.4,8.3L24.4,8.3L24.4,8.3C24.4,8.3,24.4,8.2,24.4,8.3L24.4,8.3z"/>
	<path fill="#FFFFFF" d="M23.7,8.3L23.7,8.3C23.7,8.4,23.7,8.3,23.7,8.3L23.7,8.3c0,0.1-0.1,0-0.2,0C23.6,8.3,23.7,8.3,23.7,8.3
		L23.7,8.3z"/>
	<path fill="#FFFFFF" d="M22.8,8.3c0,0-0.1,0-0.1,0C22.6,8.3,22.7,8.3,22.8,8.3C22.7,8.3,22.7,8.3,22.8,8.3L22.8,8.3z"/>
	<path fill="#E63027" d="M24.8,8.4c0,0-0.1,0-0.2,0C24.7,8.4,24.8,8.4,24.8,8.4L24.8,8.4z"/>
	<path fill="#FFFFFF" d="M23.8,8.6c-0.1,0-0.2,0-0.2-0.1v0C23.6,8.4,23.8,8.5,23.8,8.6L23.8,8.6z"/>
	<polygon fill="#E63027" points="24.9,8.5 24.9,8.5 24.9,8.5 	"/>
	<polygon fill="#E63027" points="25.1,8.5 25,8.5 25,8.5 	"/>
	<path fill="#FFFFFF" d="M24,8.7c0,0,0.1,0,0.2,0C24.1,8.7,24,8.8,24,8.7l-0.2-0.1C23.9,8.6,24,8.6,24,8.7L24,8.7z"/>
	<path fill="#E63027" d="M25.3,8.6c-0.1,0-0.1,0.1-0.1,0.1C25.2,8.7,25.2,8.7,25.3,8.6L25.3,8.6L25.3,8.6L25.3,8.6L25.3,8.6
		L25.3,8.6z"/>
	<path fill="#E63027" d="M32.8,8.9c0,0.1-0.2,0-0.3,0l0,0l0,0c0,0,0-0.1,0-0.2l0.1-0.1C32.6,8.8,32.7,8.7,32.8,8.9L32.8,8.9z"/>
	<path fill="#E63027" d="M23,8.8c0,0-0.1,0-0.2,0L23,8.8L23,8.8z"/>
	<path fill="#FFFFFF" d="M24.1,8.9L24.1,8.9C24.1,8.9,24.2,8.8,24.1,8.9c0,0-0.2-0.1-0.3,0c0-0.1,0.1,0,0.2,0
		C24,8.8,24,8.9,24.1,8.9L24.1,8.9z"/>
	<path fill="#E63027" d="M26,8.9c0,0-0.1,0.1-0.1,0C25.9,8.9,26,8.9,26,8.9L26,8.9z"/>
	<path fill="#FFFFFF" d="M24.3,8.9L24.3,8.9L24.3,8.9C24.2,8.9,24.3,8.9,24.3,8.9L24.3,8.9z"/>
	<polygon fill="#E63027" points="23.6,9 23.5,8.9 23.6,8.9 	"/>
	<path fill="#E63027" d="M20.2,9.1c0.1,0.1,0.2,0.1,0.3,0.2c0.2,0.1,0.4,0.1,0.5,0.3c-0.1,0-0.2-0.2-0.3-0.1c-0.2,0-0.4-0.2-0.6-0.1
		c0.3,0.4,0.8,0.5,1.2,0.8l0.7,0.5c0.1,0,0.1-0.1,0.2,0l-0.1,0l0.1,0.1l0,0l-0.3-0.2c0,0,0,0,0,0c0,0-0.1-0.1-0.2-0.1
		c0-0.1-0.1-0.1-0.2-0.1c-0.1-0.1-0.2-0.1-0.3-0.2v0.1c0.2,0.1,0.3,0.2,0.5,0.3v0c0.3,0.2,0.6,0.4,0.9,0.5l0-0.1
		c-0.1,0-0.2-0.1-0.3-0.2l0.1,0l-0.2-0.1c0.1-0.1,0.2,0.1,0.3,0l0.2,0.1c0,0.1-0.1,0-0.1,0c0.1,0.1,0.2,0.1,0.4,0.1L22.9,11
		c0.2,0,0.1,0.3,0.3,0.1c0.2,0.1,0.3,0.1,0.4,0.2c-0.1,0-0.1-0.1-0.2,0l0,0c0.1,0.1,0.2,0.1,0.4,0.2c0,0-0.1,0-0.1,0
		c0.3,0.2,0.6,0.5,0.9,0.7c0,0,0,0,0,0l0.1,0.2l0,0c0,0.1,0.1,0.1,0.2,0.1c0.1,0,0-0.1,0-0.1l0.1,0.1v-0.1l0.1,0.1c0,0,0,0-0.1,0
		l0,0.1c-0.1-0.1-0.3,0.1-0.3-0.1c-0.1,0-0.1-0.1-0.2,0c0,0,0,0,0.1,0l0,0c0.1,0.2,0.3,0.1,0.4,0.2c0.1,0,0.3,0.1,0.4,0.1v0
		c0,0.1,0.1,0.1,0.2,0.2c-0.1,0,0,0.1-0.1,0.1c0.1,0,0.1,0.1,0.2,0.2l0.2-0.2c0,0.1-0.1,0.1,0,0.1c0.1,0,0.1-0.1,0.1-0.2
		c0-0.1-0.1,0-0.1,0c0,0,0.1-0.1,0-0.1c0,0.1,0.2,0.1,0.2,0.2L26,13c0,0.2-0.2,0.2-0.2,0.4l-0.1-0.1c-0.1,0.1,0,0.2,0,0.2
		c0,0,0,0,0,0l0,0.4l0-0.1l0,0c-0.1,0-0.1-0.3-0.2-0.2l0,0c0,0,0,0,0,0c0.1,0,0,0.2,0,0.2c0,0,0-0.1,0-0.1l-0.2,0c0,0,0,0,0-0.1h0
		c-0.1,0.1,0.2,0.1,0.1,0.3c0.1,0,0,0.1,0.1,0.2c0.1,0.1-0.1,0.2,0,0.2c-0.1,0.1-0.2-0.1-0.2,0.1c0,0,0.1,0,0.1,0c0,0-0.1,0-0.1,0
		l0,0c-0.1,0.1,0,0.2,0.1,0.2c-0.1-0.1-0.2-0.2-0.2-0.3c0.1,0,0.1,0,0.2,0c0,0,0,0,0,0c-0.2,0-0.1-0.2-0.3-0.2l-0.2-0.1v0.1
		c-0.1-0.1-0.1-0.2-0.2-0.3c0,0,0.1,0.1,0.1,0.1l0,0c-0.1-0.1-0.2-0.1-0.2-0.2l0,0c-0.1-0.2-0.4-0.3-0.6-0.4c0-0.1,0.1,0,0.1-0.1
		l-0.2,0c0,0,0,0,0,0c-0.1-0.1-0.2,0-0.3-0.1l0,0c0,0,0,0,0.1,0c-0.2,0-0.3-0.3-0.5-0.3c0.2,0,0.3,0.2,0.5,0.1
		c0-0.1-0.1-0.1-0.2-0.1l0.1,0c0-0.1-0.1-0.1-0.2-0.1c0,0,0,0,0,0c0-0.1-0.1,0-0.1,0c-0.1-0.1-0.3-0.1-0.4-0.2c0,0.1-0.1,0-0.1,0
		c0,0,0.1,0,0.1,0c-0.1-0.1-0.2,0-0.2,0c0-0.1-0.2-0.1-0.2-0.2c0.1,0.1,0.2,0.1,0.4,0.1c-0.1-0.1-0.2-0.2-0.3-0.2c0,0,0,0,0-0.1
		c-0.1-0.1-0.1,0.1-0.2,0c0,0-0.1,0-0.2,0c0,0,0.1,0,0.2,0l0.1-0.1c-0.1-0.1-0.3,0.1-0.4-0.1h0v0c0,0,0.1,0,0.1-0.1c0,0,0,0-0.1,0v0
		c0,0,0,0,0,0c-0.2-0.1-0.4-0.1-0.5-0.2c0,0-0.1,0-0.1,0c0.1,0,0.3,0,0.4,0.1l0,0c-0.2-0.1-0.3-0.3-0.6-0.3l0.1-0.1
		c-0.1-0.1-0.2-0.1-0.2-0.1c-0.1,0-0.1-0.1-0.2,0l0.1,0h-0.1c0-0.1-0.2-0.1-0.3-0.2l0.2,0c0,0,0,0,0.1,0c0,0,0.1,0,0.1,0l-0.1-0.1
		l0,0c-0.1-0.1-0.1,0-0.2,0c-0.1,0-0.3,0-0.4-0.1c0,0,0,0,0,0c-0.2-0.1-0.4,0-0.5-0.2h-0.2c0.2-0.1,0.3,0.1,0.4,0.1
		c0.3,0,0.5,0.2,0.7,0.2c-0.4-0.3-0.7-0.3-1.1-0.4c0-0.1-0.2,0-0.2-0.1v-0.1l-0.2,0c0-0.1,0.2,0,0.2-0.1c-0.1-0.1-0.3,0-0.3-0.2
		c0,0,0.1,0,0.1,0c0,0-0.1,0-0.1-0.1c0.1-0.1,0.1,0,0.2-0.1L19,10c0-0.1,0-0.1-0.1-0.2l0,0.1v0c-0.1,0-0.2,0-0.3,0.1
		c0.1-0.2,0.2-0.2,0.4-0.3c0,0,0,0,0,0c0,0.1-0.1,0-0.1,0.1c0.1-0.1,0.3,0.1,0.3-0.1c0.2,0,0-0.2,0.2-0.3c0,0.1,0.2,0.1,0.2,0.2
		l0.1-0.1c0.1,0,0.2-0.1,0.2-0.3l0,0L20.2,9.1L20.2,9.1L20.2,9.1L20.2,9.1z"/>
	<path fill="#E63027" d="M25.6,9c0,0-0.1,0-0.1,0C25.5,9,25.5,9,25.6,9L25.6,9z"/>
	<path fill="#E63027" d="M26.2,9.2C26.2,9.1,26.1,9.2,26.2,9.2C26.1,9.2,26.2,9.3,26.2,9.2c0,0.2-0.1,0.1-0.2,0.1
		C25.9,9.2,26.1,9,26.2,9.2L26.2,9.2z"/>
	<path fill="#E63027" d="M23.8,9.1c0,0-0.1,0-0.2,0C23.7,9.2,23.7,9.1,23.8,9.1L23.8,9.1z"/>
	<path fill="#E63027" d="M24.4,9.1C24.4,9.2,24.4,9.1,24.4,9.1v0.1c-0.1-0.1-0.1,0-0.2-0.1C24.3,9.2,24.4,9.1,24.4,9.1L24.4,9.1z"/>
	<path fill="#E63027" d="M24,9.5L24,9.5L24,9.5c-0.1,0-0.1-0.1-0.2-0.1c0-0.1-0.1-0.1-0.1-0.1v0C23.8,9.3,24,9.4,24,9.5L24,9.5z"/>
	<path fill="#E63027" d="M21.1,9.5L21.1,9.5L21.1,9.5z"/>
	<path fill="#E63027" d="M25.2,9.7c-0.1,0.1-0.1,0-0.1-0.1C25.1,9.6,25.2,9.6,25.2,9.7L25.2,9.7z"/>
	<path fill="#FFFFFF" d="M26.3,9.7c-0.1,0-0.3,0.1-0.3-0.1l0,0C26.1,9.8,26.2,9.6,26.3,9.7L26.3,9.7z"/>
	<polygon fill="#FFFFFF" points="27.2,9.8 27.1,9.6 27.2,9.6 	"/>
	<path fill="#E63027" d="M21.6,9.8c-0.1,0-0.2-0.1-0.2-0.1C21.4,9.7,21.5,9.7,21.6,9.8L21.6,9.8z"/>
	<polygon fill="#E63027" points="21.6,9.8 21.6,9.8 21.7,9.9 	"/>
	<polygon fill="#FFFFFF" points="27,9.8 27,9.8 27,9.9 27,9.9 	"/>
	<polygon fill="#FFFFFF" points="26.2,10 26.1,9.9 26.3,9.9 	"/>
	<path fill="#E63027" d="M25,10c0,0-0.1,0-0.1,0C24.9,10.1,25,10,25,10C25.1,10,25,10,25,10c0,0.1,0.2,0.1,0.3,0.2
		c0-0.1,0.1,0,0.1,0c0.1,0,0.2-0.1,0.2,0.1c0.1-0.2,0.3,0,0.5-0.1c0,0.1,0.1,0.1,0.2,0.2l-0.1,0.1c0,0.1,0.1,0.1,0.2,0.2
		c-0.1,0.1-0.1,0.1-0.1,0.2c-0.2,0.1-0.4,0.1-0.6,0.2l-0.1-0.1c0,0,0,0,0.1,0c-0.1-0.1-0.2,0-0.2,0c0,0,0.1,0,0.2-0.1
		c-0.1-0.1-0.4-0.2-0.5-0.2c0.2-0.1,0.4,0.1,0.6,0.1c-0.1-0.1-0.2,0-0.2-0.1c0.2,0,0.4,0,0.6,0c-0.2-0.1-0.4-0.1-0.6-0.1
		c0,0,0,0,0-0.1c-0.1-0.1-0.2,0-0.3,0c-0.1-0.1-0.2-0.2-0.3-0.2h0.1c0,0,0-0.1,0-0.1c-0.1,0.2-0.2,0-0.3-0.1v0
		C24.6,10,24.8,10,25,10L25,10z"/>
	<path fill="#E63027" d="M22,10c0,0-0.1,0-0.1-0.1L22,10L22,10z"/>
	<path fill="#FFFFFF" d="M21.2,10.2c-0.2,0.1-0.2-0.1-0.4-0.2l0,0C21,10.1,21.1,10.1,21.2,10.2L21.2,10.2z"/>
	<polygon fill="#FFFFFF" points="19.1,10.2 19.1,10.1 19.1,10.2 	"/>
	<path fill="#FFFFFF" d="M19.2,10.3L19.2,10.3L19.2,10.3C19.1,10.3,19.2,10.3,19.2,10.3L19.2,10.3z"/>
	<path fill="#FFFFFF" d="M19.4,10.4C19.4,10.4,19.3,10.4,19.4,10.4L19.4,10.4L19.4,10.4z"/>
	<path fill="#FFFFFF" d="M19.6,10.4c-0.1,0-0.1,0.1-0.2,0C19.5,10.4,19.6,10.3,19.6,10.4L19.6,10.4z"/>
	<polygon fill="#E63027" points="24.8,10.5 24.9,10.5 25,10.5 	"/>
	<path fill="#E63027" d="M22.8,10.6l-0.1-0.1C22.8,10.5,22.7,10.6,22.8,10.6L22.8,10.6z"/>
	<path fill="#E63027" d="M23.2,10.8l-0.3-0.1l0,0C23,10.7,23.1,10.7,23.2,10.8L23.2,10.8z"/>
	<path fill="#E63027" d="M19.4,10.9c-0.1,0-0.2,0-0.3,0C19.2,10.8,19.3,10.8,19.4,10.9L19.4,10.9z"/>
	<path fill="#E63027" d="M23.6,10.9C23.6,10.9,23.5,11,23.6,10.9c0,0.1,0.1,0.1,0.2,0.2c-0.2-0.1-0.3-0.2-0.5-0.2
		C23.3,10.7,23.4,11.1,23.6,10.9L23.6,10.9z"/>
	<path fill="#FFFFFF" d="M22.8,11.2l0.1,0.1l-0.2-0.2C22.7,11.2,22.8,11.2,22.8,11.2L22.8,11.2z"/>
	<path fill="#FFFFFF" d="M23.2,11.2C23.3,11.3,23.2,11.2,23.2,11.2C23.2,11.2,23.3,11.2,23.2,11.2L23.2,11.2L23.2,11.2z"/>
	<path fill="#FFFFFF" d="M21.2,11.3L21.2,11.3L21.2,11.3z"/>
	<path fill="#FFFFFF" d="M23.1,11.4c0.1,0,0.2,0,0.2,0.1c-0.1,0-0.3-0.1-0.4-0.2C23,11.4,23.2,11.4,23.1,11.4L23.1,11.4z"/>
	<path fill="#E63027" d="M24.4,11.5c-0.2,0.1-0.1-0.2-0.3-0.1l0,0C24.2,11.4,24.2,11.5,24.4,11.5L24.4,11.5z"/>
	<path fill="#E63027" d="M21.8,11.9c-0.1,0.1-0.2,0-0.3,0C21.7,11.9,21.8,11.9,21.8,11.9L21.8,11.9z"/>
	<path fill="#E63027" d="M24.7,12.2c-0.1-0.1-0.3-0.2-0.3-0.3c0,0-0.1,0-0.1-0.1L24.7,12.2L24.7,12.2L24.7,12.2z"/>
	<path fill="#FFFFFF" d="M24.2,12.1c0,0-0.1,0-0.1-0.1C24.1,12,24.1,12,24.2,12.1L24.2,12.1z"/>
	<path fill="#E63027" d="M25,12.2c0,0-0.1,0-0.1-0.1C25,12,25,12.1,25,12.2L25,12.2z"/>
	<path fill="#FFFFFF" d="M24.2,12.1C24.3,12.1,24.2,12.2,24.2,12.1c0,0.1-0.2,0.1-0.2,0C24.1,12.1,24.1,12.1,24.2,12.1L24.2,12.1z"
		/>
	<path fill="#FFFFFF" d="M24.5,12.3L24.5,12.3c0,0-0.1,0.1-0.2,0c-0.1,0,0-0.1,0-0.1C24.4,12.2,24.4,12.3,24.5,12.3L24.5,12.3z"/>
	<path fill="#E63027" d="M25.5,12.6l-0.4-0.3l0,0C25.2,12.3,25.3,12.4,25.5,12.6L25.5,12.6z"/>
	<path fill="#E63027" d="M24.9,12.4c-0.1,0-0.1-0.1-0.2-0.1v0C24.8,12.3,24.9,12.4,24.9,12.4L24.9,12.4z"/>
	<path fill="#E63027" d="M24.7,12.3L24.7,12.3L24.7,12.3C24.6,12.3,24.6,12.3,24.7,12.3L24.7,12.3z"/>
	<polygon fill="#E63027" points="25.3,12.8 25.1,12.5 25.3,12.7 	"/>
	<path fill="#FFFFFF" d="M24.5,12.7L24.5,12.7L24.5,12.7C24.6,12.7,24.5,12.7,24.5,12.7C24.5,12.6,24.5,12.7,24.5,12.7L24.5,12.7z"
		/>
	<polygon fill="#E63027" points="25.6,12.7 25.5,12.6 25.5,12.6 	"/>
	<path fill="#E63027" d="M25.7,13.1L25.7,13.1C25.6,13.1,25.7,13.1,25.7,13.1L25.7,13.1z"/>
	<path fill="#E63027" d="M23.4,13.2c-0.1,0-0.1-0.1-0.1-0.1L23.4,13.2L23.4,13.2z"/>
	<path fill="#E63027" d="M23.4,13.2l0.1,0.1L23.4,13.2z"/>
	<path fill="#FFFFFF" d="M25.7,13.3L25.7,13.3C25.6,13.3,25.6,13.3,25.7,13.3L25.7,13.3C25.7,13.3,25.7,13.3,25.7,13.3L25.7,13.3z"
		/>
	<path fill="#FFFFFF" d="M25.4,13.6L25.4,13.6c-0.1,0-0.3,0-0.2-0.1C25.3,13.5,25.3,13.6,25.4,13.6L25.4,13.6z"/>
	<path fill="#FFFFFF" d="M25.2,13.7c0,0-0.1,0-0.1-0.1L25.2,13.7L25.2,13.7z"/>
	<path fill="#E63027" d="M23.9,13.6L23.9,13.6C23.8,13.6,23.9,13.6,23.9,13.6L23.9,13.6z"/>
	<path fill="#E63027" d="M24,13.7L24,13.7L24,13.7z"/>
	<polygon fill="#E63027" points="24.1,13.9 24.1,13.8 24.1,13.9 	"/>
	<path fill="#E63027" d="M24.8,14.3L24.8,14.3C24.7,14.4,24.7,14.4,24.8,14.3c0,0.1-0.1,0.1-0.1,0.1c-0.1-0.1-0.2-0.3-0.3-0.4
		C24.5,14.1,24.6,14.4,24.8,14.3L24.8,14.3z"/>
	<path fill="#FFFFFF" d="M24.9,14.1L24.9,14.1C24.8,14.2,24.8,14.2,24.9,14.1C24.8,14.1,24.8,14.1,24.9,14.1L24.9,14.1z"/>
	<path fill="#E63027" d="M39.7,14.4L39.7,14.4L39.7,14.4z"/>
	<path fill="#E63027" d="M22.7,15l0.2,0.1c-0.2-0.1-0.4-0.2-0.7-0.2l0,0.1l1.4,0.9c0,0-0.1,0-0.1,0.1c-0.1-0.1-0.2-0.3-0.4-0.2l0,0
		l0.2,0.1c-0.2,0-0.4-0.1-0.6-0.2c0,0,0,0-0.1,0c0.6,0.5,1.3,0.9,1.7,1.4c0,0.2,0.1,0.3,0.2,0.5h0c0,0.1,0,0.3,0.1,0.3
		c0,0.6,0,1.2-0.2,1.7c0,0.8-0.2,1.8,0.1,2.6c0.1,0.1,0.1-0.1,0.1-0.1c-0.1,0.1,0,0.1,0,0.2c0,0,0,0,0-0.1l0,0.1h0
		c0,0.1,0,0.1,0.1,0.2c0,0.4,0.1,0.8,0.2,1.1c0,0,0,0,0,0c0.1,0.6,0.5,1,0.8,1.5c0.7,0.8,1.4,1.6,2.1,2.5l0,0c0,0,0,0,0,0
		c0,0,0-0.1-0.1,0l0,0c0.1,0,0,0,0,0c-0.1,0,0-0.1-0.1-0.2h-0.1c0.1-0.2-0.2-0.1-0.2-0.2c-0.1,0.1,0.1,0.2,0.1,0.2
		c0,0.1,0.1,0.2,0.2,0.2c0,0.1,0.1,0.2,0.2,0.3l0.1-0.1l0.3,0.3l0,0l0,0c0.2,0.3,0.6,0.6,0.9,0.9l-0.1,0l0.2,0.2l0,0
		c0.7,0.5,1.3,1.2,2,1.6c-0.1,0-0.1-0.2-0.2-0.1l0,0c0,0-0.1,0-0.1,0l0,0c0,0,0.1,0,0.1,0l0,0c-0.2,0-0.2-0.3-0.4-0.2l0-0.1
		c0,0,0,0,0,0c0,0,0-0.1-0.1-0.1l-0.1,0c0.1,0.2,0.4,0.3,0.5,0.5c0,0,0,0,0,0c0.1,0.1,0.1-0.1,0.2,0c0,0,0,0,0,0L31,31l0.1,0.1
		c-0.2,0.1-0.2-0.3-0.4-0.2c0.1,0.2,0.3,0.4,0.5,0.5l0.1,0.1l0,0l0,0c0,0.1,0.1,0.1,0.2,0.1c0,0.1,0.1,0.2,0.2,0.3
		c-0.1-0.1-0.2-0.3-0.4-0.3c0-0.1-0.1-0.1-0.1-0.1c-0.1,0.1,0.1,0.1,0.1,0.2c0.2,0.1,0.3,0.3,0.5,0.4c0.1,0,0-0.1,0-0.1l0,0
		c0.1,0,0.2,0.1,0.3,0.2c0.1,0,0.1,0.1,0.2,0.1c-0.1,0.1,0,0.1,0,0.2c0.2,0,0.3,0.3,0.5,0.3l0.2,0.2l0,0l0,0
		c0.3,0.1,0.3,0.4,0.6,0.6h0.2c0,0-0.1,0-0.1,0h0v0.1h0c0-0.1,0-0.1-0.1-0.1c-0.1,0.1,0,0.2,0.1,0.2c-0.1,0.3,0,0.5-0.2,0.7
		c0,0.1,0.2,0.1,0.1,0.3l0.1,0c-0.1,0,0,0.1,0,0.2c-0.1,0.1-0.1,0.3-0.2,0.4c0,0,0.1,0,0.1,0.1c0.1-0.1,0.1-0.2,0.1-0.2
		c0.1,0.2-0.2,0.2-0.2,0.5c-0.1,0.4-0.3,0.8-0.5,1.1c-0.1,0.1-0.2,0-0.2,0.1c-0.1,0-0.2,0.2-0.2,0.1c-0.1-0.1-0.3-0.1-0.4,0
		c-0.2,0-0.1-0.1-0.1-0.2c-0.5,0-0.9-0.2-1.5-0.2c-0.2-0.1-0.5,0.1-0.7,0.1c-0.2,0.1-0.4,0.1-0.5,0.2c0,0-0.1,0-0.1,0
		c0,0,0,0.1-0.1,0.1c-0.2,0.1-0.5,0.2-0.7,0.2c-0.4,0.1-0.9,0.1-1.3,0.1l-0.2,0.1v0c-0.2,0-0.5,0-0.6,0v0c-0.3,0-0.7,0.1-1,0.1
		c-0.2,0.1-0.5,0.2-0.7,0.2c-0.5,0.3-0.9,0.5-1.4,0.8c-0.6,0.2-1.2,0.3-1.8,0.4c-0.8,0.2-1.6,0.4-2.2,0.9c0.2,0.1,0.4,0.1,0.6,0.2
		c1.7,0.6,3.5,1.1,5.2,1.9c0.6,0.3,1.1-0.1,1.7-0.1l1.4-0.1l3.9-1c0.8-0.2,1.6-0.5,2.4-0.6c1.8-0.4,3.7-0.6,5.6-0.4
		c-0.4,0.2-1.1,0-1.6,0.2c-0.7,0.1-1.4,0.2-2.1,0.3c-0.1,0,0,0.1-0.1,0.1c0.2,0.1,0.4-0.1,0.6,0c-0.3,0-0.5,0.2-0.8,0.1
		c-0.1,0.1-0.2,0-0.3,0.1c-0.1,0-0.2,0.1-0.3,0.1c-0.6,0.2-1.1,0.4-1.7,0.6c0,0.1-0.2,0.1-0.3,0.2c-0.3,0.1-0.4,0.2-0.7,0.3
		c-0.3,0.2-0.8,0.2-1,0.5c-0.2,0-0.5,0.1-0.7,0.2c-0.1-0.1-0.2,0.1-0.3,0c-0.3,0-0.5,0-0.8,0.1c-0.3,0-0.5,0-0.8,0.1
		c-0.1-0.1-0.3,0-0.4-0.1c-0.2,0.1-0.3-0.1-0.5,0.1c-0.5,0-1.1,0-1.5,0.2c-0.1,0-0.2,0.1-0.3,0.2l-0.2-0.2l0,0
		c-0.2-0.1-0.4,0-0.5-0.2c-0.1,0-0.2,0-0.3,0c-0.6-0.1-1.1-0.3-1.6-0.4c-0.2,0-0.4-0.1-0.7-0.1v0c-0.2-0.1-0.5-0.2-0.8-0.2
		c0,0,0,0,0-0.1c-0.3,0-0.7-0.3-1.1-0.2C20.4,41,20.2,41,19.9,41c0-0.1-0.1-0.1-0.1-0.1c-0.2,0-0.3,0-0.5,0c-0.3,0-0.5-0.2-0.8-0.2
		c-0.2,0-0.5-0.1-0.6,0c-0.9-0.1-1.8-0.4-2.6-0.8c-0.1,0-0.2,0.1-0.3,0.1c-0.1-0.2,0.1-0.5,0.1-0.7c0.1-0.3,0-0.7,0.3-0.8
		c0.1-0.1,0.2-0.2,0.3-0.3c0.5,0.1,0.9-0.2,1.4-0.2c1.9-0.1,3.5-0.8,5.3-1.1c2.1-0.9,4.4-1.2,6.6-1.9c0.7-0.3,1.8-0.1,2.5-0.5
		c0-0.1,0.3-0.3,0.1-0.4c0-0.1-0.1,0-0.1-0.1c0-0.1,0.1,0,0.1-0.1c-0.1,0-0.2,0-0.3-0.1c0,0,0,0,0,0c-0.1-0.1-0.1-0.2-0.2-0.2
		c-0.2,0.1-0.2-0.3-0.4-0.2l-0.1-0.1c0-0.1,0.2,0,0.2,0l-0.1-0.1h0c0-0.2-0.2,0-0.2-0.2c0-0.1,0.1,0,0.1-0.1c-0.2-0.2-0.4,0-0.5-0.2
		c0.1-0.1,0.1,0,0.2,0l0,0c0,0,0.1,0,0.1,0c0,0,0-0.1,0-0.1c0,0-0.1,0-0.1,0l0.1,0c-0.1-0.2-0.3-0.3-0.5-0.3l0,0
		c0-0.1-0.1,0-0.1-0.1c0.1-0.1,0-0.2-0.1-0.2c0.1,0,0.1,0,0.2,0c0-0.1-0.1-0.1-0.2-0.2c-0.1,0-0.1,0-0.2,0c-0.1-0.1-0.2-0.2-0.3-0.3
		c0,0.1,0.2,0,0.3,0.1c0-0.1-0.1-0.1-0.1-0.2h-0.2l0,0c-0.1,0-0.2-0.2-0.3-0.2h0.1c0.1,0.1,0.2,0.1,0.3,0.2c0.1,0,0.2,0,0.2,0v0
		l-0.2,0c0,0,0.1,0,0.1-0.1c0,0-0.1-0.1-0.1,0l-0.2-0.1c0,0,0.1,0,0.1,0c0,0,0-0.1,0-0.1c-0.1-0.1-0.1-0.1-0.1-0.1c0,0,0,0,0,0
		c-0.1-0.1-0.3,0-0.2-0.2c0,0,0.1,0.1,0.1,0l-0.1-0.1l0.1-0.1l-0.1-0.1c0.1,0,0.2,0.1,0.3,0.1c0.2,0.1,0.3,0,0.4,0.1l0.1,0
		c0,0.1,0.1,0.1,0.1,0.2c0,0,0,0-0.1,0l0,0c0.2,0.1,0.3,0.1,0.6,0.2c0,0,0,0,0.1-0.1c-0.2-0.1-0.3-0.3-0.5-0.3c0,0,0-0.1,0-0.1l0,0
		l0,0l0,0l0,0c0-0.1-0.2-0.1-0.2-0.2l0,0c-0.1,0-0.2-0.2-0.3-0.2l0,0l0.1-0.1c-0.1-0.2-0.4-0.3-0.6-0.2v0c-0.1-0.1-0.2-0.1-0.3,0
		l0,0l-0.1,0l0.2-0.1c0.1,0,0.2,0.2,0.4,0.1c-0.1-0.1-0.4-0.1-0.5-0.2l0.2,0l-0.1-0.1c0,0,0.1,0.1,0.2,0c-0.1-0.1-0.3-0.1-0.3-0.2
		h-0.1c0-0.1-0.2,0-0.2-0.2l-0.3-0.2l0,0c-0.1-0.1-0.3-0.3-0.4-0.4c-0.2,0-0.2-0.1-0.4-0.2c0,0,0,0,0.1,0c0,0,0,0,0,0
		c0,0.1,0.1,0.2,0.2,0.1l0,0c-0.1,0-0.1-0.1-0.2-0.2c0.1,0.1,0.3,0,0.4,0.2c0-0.1,0.1,0,0.1-0.1l-0.1-0.1l0,0
		c-0.1-0.2-0.2-0.1-0.3-0.2l-0.2-0.1c0.1,0,0.2,0.1,0.3,0.1c0,0,0,0.1,0.1,0.1l0,0c-0.1-0.1-0.2-0.2-0.3-0.3c0-0.1-0.1-0.2-0.2-0.3
		c0,0.1-0.1,0-0.1,0c0,0-0.1-0.1-0.1-0.1l0,0.1c0,0-0.1-0.1-0.1,0c0.1,0.2,0.3,0.1,0.4,0.2c-0.2-0.1-0.4-0.1-0.6-0.3
		c0.1-0.1,0.1,0.1,0.2,0c-0.1,0-0.1-0.1-0.2-0.1c0.1-0.1,0.1,0,0.2,0c0,0.1,0.1,0.1,0.2,0.1c0.1,0,0.1-0.1,0.2-0.1l-0.2-0.2l0,0
		l0-0.1l0,0c0.1-0.1-0.1-0.1-0.1-0.1l-0.1-0.1c-0.1,0-0.2,0-0.3,0c0,0,0.2,0,0.2,0c-0.1-0.1-0.2,0-0.3,0l0,0c0,0,0,0,0,0
		c0.1,0,0.2,0,0.2,0c-0.1,0-0.2-0.2-0.3-0.1c0,0-0.1,0-0.1,0c0,0,0,0,0,0.1l0.1,0c0,0,0,0-0.1,0c0,0,0,0,0,0.1
		c-0.1-0.1-0.2,0-0.3-0.1c-0.1-0.1-0.2,0-0.2-0.1c0.1,0,0.3,0.2,0.4,0.1c-0.2,0,0-0.1-0.2-0.2c0,0-0.1,0-0.1,0c0.1,0,0.1,0.1,0.1,0
		c-0.1-0.1-0.1-0.2-0.3-0.2c-0.1,0-0.1-0.1-0.2-0.1c0.1,0.1,0.3-0.1,0.4,0.1l0,0c0.1,0.1,0.1,0,0.2,0c0-0.1-0.2-0.1-0.3-0.2
		c0,0-0.1,0-0.1,0l0,0l0,0l0,0c0-0.1-0.1-0.1-0.2-0.1l0.1,0c0-0.1-0.1,0-0.1-0.1l0,0c0.1,0.1,0.3,0.1,0.4,0.1c0-0.1-0.1-0.1-0.2-0.2
		c-0.2,0.1-0.3-0.1-0.4-0.1L24.7,26l0,0c0-0.1-0.1-0.1-0.2-0.1c0,0,0.1,0,0.2,0.1c0,0,0,0,0.1,0c-0.1-0.1-0.2-0.1-0.3-0.2l0,0
		l-0.2-0.1c0,0,0.1-0.1,0-0.1c-0.1,0-0.2,0-0.1-0.1c-0.1,0,0-0.1-0.1-0.1c-0.1-0.2-0.2-0.1-0.2-0.4l-0.1-0.2c0,0,0.1,0,0.1-0.1l0,0
		c-0.1,0.1-0.1,0-0.1,0h0c0,0,0-0.1,0-0.1h0h0.1c0,0,0,0,0,0.1c0.2,0,0,0.3,0.3,0.3c0.1,0,0.1,0.1,0.1,0.1c-0.1-0.1,0-0.1,0.1-0.2
		c-0.1-0.1-0.2-0.1-0.2-0.2l0.1,0c0-0.2-0.2,0-0.2-0.2l-0.1-0.1l0.1,0L23.9,24l0,0c0,0,0,0,0-0.1l0,0c0,0.1-0.1,0-0.1,0
		c0-0.1,0-0.2-0.1-0.2c0,0,0,0,0,0l0,0l0,0l0,0c0.1-0.1,0-0.2,0-0.2c0.1,0,0,0.1,0.1,0.1c-0.1,0,0.1,0.1,0.1,0.2l0,0
		c0.1-0.1-0.1-0.2,0-0.3c-0.1-0.1,0.1-0.2,0-0.3c0-0.1,0-0.2-0.1-0.3l0,0.4h-0.1l0.1,0.2c-0.1,0,0-0.1-0.1-0.2l0,0c0,0,0-0.1,0-0.1
		h0c0-0.1,0-0.1,0-0.1h0c-0.1-0.3-0.1-0.6-0.3-0.8c0.1,0,0-0.2-0.1-0.2c0,0,0.1,0,0.1,0c0-0.1-0.1-0.2-0.2-0.3c0-0.3,0-0.8-0.1-1h0
		c0,0-0.1-0.1,0-0.2c-0.1,0-0.1-0.1,0-0.1c0-0.6,0.2-1.2,0.1-1.8l0,0c0-0.1,0.1-0.3-0.1-0.3c0-0.1,0-0.1-0.1-0.2c0,0,0,0,0,0
		c0,0,0-0.1-0.1-0.1c0,0,0,0,0,0c0-0.1-0.1-0.1-0.2-0.2c0,0-0.1,0-0.1,0l0.1,0c-0.1-0.1-0.3-0.1-0.5-0.1c-0.1,0-0.2-0.1-0.3-0.2
		c0.1-0.1,0.2-0.1,0.2-0.1c0,0,0.1,0,0.1,0c0.1-0.1,0-0.1,0-0.2c-0.1,0.1-0.3-0.1-0.4-0.1c0,0,0.1,0,0.1,0l0.1-0.1
		c-0.3-0.2-0.5-0.4-0.9-0.5c0-0.1-0.1-0.1-0.2-0.1l0,0c-0.1-0.1-0.2-0.1-0.3-0.2h0c0.1,0-0.1-0.1,0-0.1l-0.2-0.2c0.1,0,0-0.1,0-0.2
		c0.1,0.1,0.1,0,0.2,0c0-0.1-0.2-0.1-0.2-0.2c0.1-0.1-0.1-0.1-0.1-0.2c0,0,0,0,0,0c0,0,0-0.2,0-0.2l0.1-0.1l0,0
		c0.2,0-0.1-0.6,0.2-0.4c0.1,0.1,0.1-0.1,0.1,0c0-0.1,0.2-0.1,0.1-0.3l0,0l0,0c0,0.1,0.2,0.1,0.2,0.1l0.1,0l0,0c0.1-0.1,0.1,0,0.2,0
		c0,0,0,0,0,0.1c0,0.1,0.1,0,0.1,0.1c0,0,0-0.1,0.1-0.1l0,0l0,0l0-0.1c0.1,0,0.1-0.2,0.3-0.1C22.2,14.8,22.5,14.8,22.7,15L22.7,15z"
		/>
	<polygon fill="#FFFFFF" points="21.4,15 21.5,15 21.5,15 	"/>
	<path fill="#FFFFFF" d="M21.1,15.2L21.1,15.2V15C21.2,15.1,21.2,15.1,21.1,15.2L21.1,15.2z"/>
	<path fill="#E63027" d="M40.1,15.2l0.1,0.1L40.1,15.2z"/>
	<path fill="#FFFFFF" d="M20.9,15.5c0,0-0.1-0.1-0.1-0.1C20.9,15.4,20.9,15.4,20.9,15.5L20.9,15.5z"/>
	<path fill="#FFFFFF" d="M22.5,15.4l0.4,0.2L22.5,15.4z"/>
	<path fill="#E63027" d="M40.2,15.4L40.2,15.4L40.2,15.4z"/>
	<path fill="#FFFFFF" d="M22.5,15.6c-0.1,0-0.2-0.1-0.2-0.1C22.4,15.5,22.5,15.5,22.5,15.6L22.5,15.6z"/>
	<path fill="#E63027" d="M40.4,15.7L40.4,15.7L40.4,15.7z"/>
	<path fill="#E63027" d="M40.5,15.9l0.1,0.1L40.5,15.9z"/>
	<path fill="#E63027" d="M23.5,16c0.1,0.1,0.2,0.2,0.3,0.2c0,0-0.1,0-0.2,0c0-0.1-0.1,0-0.2-0.1L23.3,16c0,0,0,0,0.1,0
		c-0.1-0.1-0.2,0-0.3-0.1C23.2,16,23.3,15.8,23.5,16L23.5,16z"/>
	<path fill="#E63027" d="M40.7,16.2L40.7,16.2L40.7,16.2z"/>
	<polygon fill="#E63027" points="23.9,16.4 23.8,16.4 23.9,16.4 	"/>
	<path fill="#E63027" d="M24.2,16.7c-0.1,0-0.2-0.1-0.3-0.2C24.1,16.5,24.1,16.6,24.2,16.7L24.2,16.7z"/>
	<path fill="#E63027" d="M24.6,17.2c-0.1-0.1,0-0.2-0.2-0.2l0,0L24.6,17.2L24.6,17.2z"/>
	<polygon fill="#E63027" points="24.7,17.6 24.6,17.2 24.7,17.5 	"/>
	<polygon fill="#E63027" points="24.7,18 24.7,18 24.7,18.1 24.7,18.1 	"/>
	<path fill="#FFFFFF" d="M41.5,18.1l0.1,0.1L41.5,18.1z"/>
	<polygon fill="#E63027" points="24.6,18.5 24.7,18.3 24.7,18.5 	"/>
	<polygon fill="#E63027" points="24.6,19.1 24.6,18.7 24.6,19.1 	"/>
	<path fill="#FFFFFF" d="M24,19.4c-0.2,0.1,0,0.3-0.1,0.4c0,0.1,0,0.2-0.1,0.3C23.9,19.9,23.8,19.6,24,19.4l0-0.4
		C24,19.1,23.9,19.2,24,19.4L24,19.4z"/>
	<polygon fill="#E63027" points="24.6,19.2 24.6,19.2 24.6,19.4 24.6,19.4 	"/>
	<polygon fill="#E63027" points="24.5,19.7 24.5,19.7 24.5,19.8 24.5,19.8 	"/>
	<path fill="#E63027" d="M24.5,20.4L24.5,20.4c-0.1-0.1,0-0.2,0-0.2c-0.1,0,0-0.1,0-0.1C24.5,20.2,24.4,20.3,24.5,20.4L24.5,20.4z"
		/>
	<polygon fill="#FFFFFF" points="23.8,20.2 23.8,20.2 23.8,20.4 23.8,20.4 	"/>
	<polygon fill="#FFFFFF" points="23.8,20.5 23.8,20.5 23.8,20.6 23.8,20.6 	"/>
	<path fill="#E63027" d="M24.4,20.9c0-0.1,0-0.3,0.1-0.4L24.4,20.9L24.4,20.9L24.4,20.9z"/>
	<polygon fill="#E63027" points="24.4,21.1 24.4,21 24.4,21.1 	"/>
	<path fill="#E63027" d="M24.5,22c-0.1-0.2-0.1-0.5-0.1-0.8C24.4,21.5,24.5,21.8,24.5,22L24.5,22z"/>
	<path fill="#FFFFFF" d="M43.7,22.3L43.7,22.3c-0.2-0.3-0.4-0.7-0.6-1.1C43.3,21.6,43.5,21.9,43.7,22.3L43.7,22.3z"/>
	<path fill="#FFFFFF" d="M24.6,22.4c0,0.3,0.1,0.6,0.1,1c0.1,0.1,0,0.1,0.1,0.2c-0.2-0.4-0.1-0.9-0.3-1.4
		C24.6,22.2,24.4,22.3,24.6,22.4L24.6,22.4z"/>
	<path fill="#FFFFFF" d="M23.8,22.3c0,0.1,0,0.1,0,0.2L23.8,22.3L23.8,22.3L23.8,22.3z"/>
	<path fill="#E63027" d="M23.6,23.6C23.6,23.6,23.6,23.5,23.6,23.6L23.6,23.6L23.6,23.6L23.6,23.6z"/>
	<path fill="#E63027" d="M25.5,24.4c-0.2-0.2-0.4-0.6-0.5-0.9C25.1,23.8,25.3,24.1,25.5,24.4L25.5,24.4z"/>
	<path fill="#E63027" d="M23.7,24c-0.1,0-0.2,0.1-0.2-0.1C23.7,23.9,23.6,23.9,23.7,24L23.7,24z"/>
	<path fill="#E63027" d="M23.8,24.2c-0.1,0-0.1,0.1-0.1,0l0-0.2C23.7,24.2,23.8,24,23.8,24.2L23.8,24.2z"/>
	<path fill="#E63027" d="M25.6,24.6L25.6,24.6L25.6,24.6z"/>
	<path fill="#E63027" d="M25.8,24.8l0.1,0.2L25.8,24.8z"/>
	<path fill="#FFFFFF" d="M24.7,25.4L24.7,25.4C24.7,25.4,24.7,25.4,24.7,25.4L24.7,25.4L24.7,25.4c0,0-0.1,0-0.2,0
		C24.6,25.3,24.7,25.3,24.7,25.4L24.7,25.4z"/>
	<path fill="#FFFFFF" d="M24.9,25.7L24.9,25.7L24.9,25.7C24.8,25.6,24.9,25.6,24.9,25.7L24.9,25.7z"/>
	<path fill="#FFFFFF" d="M25.1,25.9L25.1,25.9L25.1,25.9C25.1,25.9,25.1,25.9,25.1,25.9L25.1,25.9z"/>
	<path fill="#FFFFFF" d="M25.8,26.7L25.8,26.7L25.8,26.7L25.8,26.7C25.8,26.6,25.8,26.7,25.8,26.7L25.8,26.7z"/>
	<path fill="#E63027" d="M25.1,26.7C25.2,26.7,25.1,26.7,25.1,26.7C25.1,26.7,25.1,26.7,25.1,26.7L25.1,26.7L25.1,26.7z"/>
	<path fill="#FFFFFF" d="M25.9,26.8L25.9,26.8C25.9,26.9,25.8,26.8,25.9,26.8C25.8,26.8,25.9,26.8,25.9,26.8L25.9,26.8z"/>
	<path fill="#FFFFFF" d="M27.1,26.9c-0.1,0-0.2-0.1-0.2-0.2C27,26.8,27.1,26.8,27.1,26.9L27.1,26.9z"/>
	<path fill="#FFFFFF" d="M26,26.9c-0.1,0.1,0.1,0.1,0.1,0.1L26,26.9L26,26.9L26,26.9z"/>
	<polygon fill="#E63027" points="25.9,27.2 25.8,27.2 25.9,27.2 	"/>
	<polygon fill="#E63027" points="25.4,27.4 25.2,27.3 25.3,27.4 	"/>
	<path fill="#FFFFFF" d="M26.6,27.7c-0.1,0-0.1-0.1-0.2-0.1C26.5,27.6,26.6,27.5,26.6,27.7L26.6,27.7z"/>
	<polygon fill="#E63027" points="26,27.6 25.9,27.6 26,27.6 	"/>
	<polygon fill="#E63027" points="27.8,27.9 27.9,27.8 27.8,27.9 	"/>
	<path fill="#FFFFFF" d="M28.2,28.2l-0.2,0v-0.1C28.1,28.1,28.1,28.1,28.2,28.2L28.2,28.2z"/>
	<path fill="#E63027" d="M26.7,28.3C26.7,28.3,26.7,28.3,26.7,28.3L26.7,28.3C26.7,28.2,26.7,28.3,26.7,28.3L26.7,28.3z"/>
	<path fill="#E63027" d="M27.4,29.2c-0.1,0-0.1,0-0.2-0.1C27.3,29.1,27.4,29.1,27.4,29.2L27.4,29.2z"/>
	<polygon fill="#E63027" points="27.5,29.3 27.5,29.3 27.5,29.3 	"/>
	<path fill="#E63027" d="M27.9,29.7c0,0-0.1,0-0.1,0L27.9,29.7L27.9,29.7z"/>
	<polygon fill="#E63027" points="28.5,30.2 28.6,30.2 28.5,30.2 	"/>
	<path fill="#E63027" d="M28.7,30.4L28.7,30.4c0,0.2-0.2-0.1-0.3,0.1l-0.2-0.2C28.4,30.2,28.6,30.5,28.7,30.4L28.7,30.4z"/>
	<path fill="#FFFFFF" d="M28.4,30.4C28.4,30.3,28.4,30.4,28.4,30.4L28.4,30.4L28.4,30.4L28.4,30.4z"/>
	<polygon fill="#E63027" points="27.9,30.5 27.9,30.5 28,30.5 	"/>
	<path fill="#E63027" d="M28.8,30.5C28.8,30.5,28.9,30.5,28.8,30.5L28.8,30.5C28.9,30.6,28.9,30.6,28.8,30.5
		C28.9,30.5,28.8,30.5,28.8,30.5L28.8,30.5L28.8,30.5z"/>
	<path fill="#E63027" d="M28.1,30.7c0,0-0.1-0.1-0.2-0.1C28,30.6,28,30.7,28.1,30.7L28.1,30.7z"/>
	<path fill="#FFFFFF" d="M29.2,30.9L29.2,30.9c-0.2,0-0.4-0.1-0.5-0.2C28.8,30.8,29.1,30.8,29.2,30.9L29.2,30.9z"/>
	<path fill="#E63027" d="M28.3,30.8L28.3,30.8c0,0.1,0.1,0.1,0.1,0.1v0c-0.1,0-0.2-0.2-0.3-0.2C28.1,30.7,28.3,30.7,28.3,30.8
		L28.3,30.8z"/>
	<path fill="#E63027" d="M31.4,30.9c-0.1,0-0.1,0-0.2-0.1C31.3,30.8,31.3,30.8,31.4,30.9L31.4,30.9z"/>
	<path fill="#E63027" d="M29.7,30.9L29.7,30.9L29.7,30.9z"/>
	<path fill="#FFFFFF" d="M29.6,31L29.6,31C29.5,31.1,29.5,31,29.6,31C29.5,31,29.6,31,29.6,31L29.6,31z"/>
	<path fill="#E63027" d="M31.3,31.1c0,0.1-0.1-0.1-0.2-0.1L31.3,31.1L31.3,31.1z"/>
	<path fill="#E63027" d="M28.7,31.1c-0.1,0-0.2,0-0.2-0.1C28.5,31.1,28.6,31.1,28.7,31.1L28.7,31.1z"/>
	<path fill="#E63027" d="M31.6,31.1L31.6,31.1L31.6,31.1z"/>
	<path fill="#FFFFFF" d="M30,31.3c-0.2,0.1-0.3-0.2-0.5-0.2C29.7,31.2,29.9,31.2,30,31.3L30,31.3z"/>
	<polygon fill="#E63027" points="31.3,31.2 31.4,31.1 31.5,31.2 	"/>
	<path fill="#FFFFFF" d="M30.5,31.3c-0.2,0-0.4,0-0.5-0.2C30.2,31.3,30.3,31.2,30.5,31.3L30.5,31.3z"/>
	<path fill="#E63027" d="M32.1,31.3c0-0.1-0.2-0.1-0.3-0.1C31.9,31.2,32,31.2,32.1,31.3L32.1,31.3z"/>
	<path fill="#FFFFFF" d="M30.5,31.6L30.5,31.6h0.2c0,0-0.1,0-0.1,0l0.1,0.1c0,0-0.1,0-0.1,0C30.6,31.6,30.5,31.5,30.5,31.6l0.1,0.1
		c-0.1,0-0.2-0.1-0.3-0.1l0,0c-0.1,0-0.2,0-0.3-0.1l-0.1-0.1C30.1,31.4,30.2,31.6,30.5,31.6L30.5,31.6L30.5,31.6z"/>
	<path fill="#E63027" d="M32.5,31.8C32.6,31.8,32.4,31.8,32.5,31.8L32.5,31.8L32.5,31.8z"/>
	<path fill="#FFFFFF" d="M31.1,31.9L31.1,31.9l0.1,0.1C31.1,32,31,32,30.9,32l-0.1-0.1c-0.1,0.1-0.1-0.1-0.2-0.1
		C30.7,31.6,30.9,31.9,31.1,31.9L31.1,31.9z"/>
	<path fill="#FFFFFF" d="M30.5,31.9c-0.1,0-0.3,0-0.3-0.1C30.4,31.7,30.5,32,30.5,31.9L30.5,31.9z"/>
	<polygon fill="#FFFFFF" points="31.8,32 31.7,31.9 31.7,31.9 	"/>
	<path fill="#E63027" d="M32.7,32L32.7,32C32.8,32,32.7,32,32.7,32L32.7,32L32.7,32L32.7,32C32.6,31.9,32.7,32,32.7,32L32.7,32z"/>
	<path fill="#E63027" d="M33,32.2c-0.1-0.1-0.1-0.1-0.2-0.1l0,0L33,32.2L33,32.2z"/>
	<path fill="#E63027" d="M66.2,32.7c0,0.1-0.1,0.1-0.1,0.1c0,0-0.1,0-0.1,0c-0.2,0.1-0.3,0.2-0.5,0.3c-0.2-0.1-0.1,0.2-0.3,0.2l0,0
		c-0.1,0.1-0.3-0.1-0.2,0.1c0,0.1-0.1,0.1-0.2,0.1c-0.2-0.1-0.3,0-0.4,0.1c0.1,0.1-0.1,0.2-0.1,0.3c-0.1,0-0.2,0.1-0.3,0.2
		c-0.3,0-0.6-0.1-0.7,0.2c-0.2,0-0.3,0.2-0.4,0.2c-0.8,0.9-1.7,1.7-2.6,2.5c-0.3,0.2-0.7,0.5-1,0.7l-0.4,0.4
		c0.1,0.1,0.3,0.1,0.4,0.3c0.6,0.4,1.3,0.6,1.8,1.1c0.3,0.1,0.2,0.3,0.4,0.4c0,0.1,0.1,0.1,0.2,0.2c0.1,0.1,0.3,0.2,0.5,0.3
		c0.5,0.3,1.1,0.6,1.5,1.1c-0.2-0.1-0.4-0.3-0.6-0.3l0,0c0,0,0,0,0,0l0,0c0.1,0.1,0.2,0.1,0.2,0.2h0.1c0,0-0.1,0-0.1,0
		c0,0,0.1,0.2,0.2,0.1l0.1,0.1c0,0-0.1-0.1-0.1,0c0.4,0.4,0.9,0.5,1.3,1c0.2,0,0.3,0.2,0.5,0.2l0,0.1c0.5,0.3,1,0.7,1.5,1
		c0,0,0.1,0,0.1,0c0.1,0.1,0.3,0.4,0.6,0.4v0.1c0.3,0.1,0.4,0.3,0.8,0.5v0c0.7,0.5,1.5,1,2.1,1.6c0.3,0.1,0.5,0.5,0.8,0.6
		c0.1,0.1,0.1,0.2,0.3,0.3c0.1,0,0,0.1,0.1,0.1c0,0.2,0.3,0.2,0.4,0.4c0,0.1,0.1,0.2,0.2,0.2c0.2,0.1,0.2,0.4,0.5,0.4
		c0,0.1,0.1,0.2,0.2,0.2c0.1-0.1,0.2,0,0.2,0.1c0-0.1-0.1,0-0.2,0c0.1,0.2,0.3,0.3,0.5,0.5c0.1,0.2,0.3,0.3,0.5,0.4
		c0.1,0.1,0.3,0.2,0.2,0.4c0.3,0.1,0.6,0.4,0.8,0.7l0,0c-0.1,0.1,0.1,0.1,0.2,0.1c0,0.1-0.1,0.1-0.2,0.1c-0.1-0.1-0.3-0.4-0.5-0.3
		c0.1,0.1,0.2,0.2,0.4,0.3l0,0c0.1,0.1,0.2,0.2,0.3,0.4c0.1-0.1,0.1-0.1,0,0c0,0.2,0.3,0.3,0.3,0.5c0.4,0.3,0.6,0.7,0.9,1
		c0.1,0.2,0.2,0.3,0.3,0.6l0.1,0c0,0.2,0.2,0.4,0.3,0.6c-0.1,0.1,0.1,0.1,0.1,0.2c0,0,0,0.1,0,0.2c0,0.1,0,0.2,0,0.4
		c0,0,0.1,0.1,0.2,0.1c0,0.1-0.2,0.2-0.1,0.3c0.1,0,0,0.1,0,0.2c0,0,0-0.1,0-0.1c0,0.2-0.3,0.1-0.2,0.3c0,0,0.1,0,0.2,0.1l0,0.1
		c-0.1,0,0-0.1-0.1-0.1c-0.1,0-0.1,0.1-0.2,0.2c0,0.1-0.1,0.1,0,0.2c-0.3,0.4-0.5,0.7-0.7,1.1c-0.1,0.1-0.4,0.2-0.3,0.4
		c-0.3,0-0.5,0.3-0.8,0.4c-0.2,0-0.2,0-0.4,0c0-0.1,0.1,0,0.1-0.1c-0.1-0.1-0.4,0.1-0.4-0.1c0.1-0.2,0.4-0.2,0.6-0.4l0,0l-0.4,0.2
		l0,0c-0.2,0-0.4,0-0.6,0.1c0.2-0.1,0.5-0.2,0.6-0.4l0,0l-0.7,0.3c0.3-0.2,0.5-0.6,0.8-0.9c0,0,0,0,0.1-0.1l0,0
		c0.1-0.2,0.3-0.3,0.3-0.5c0.1-0.1,0.1-0.3,0.2-0.3c0-0.1,0-0.1,0.1-0.2c-0.1,0,0-0.2-0.1-0.3c-0.1-0.1,0-0.3-0.2-0.3
		c0.1-0.1-0.2-0.2-0.1-0.3c-0.2,0-0.1-0.2-0.2-0.3c0,0,0-0.1,0-0.1l-0.1-0.1c0,0,0,0,0,0c0-0.1-0.1-0.1-0.2-0.1c0,0,0,0,0-0.1
		c0,0,0.1,0,0.1,0c-0.1-0.1-0.3,0-0.3-0.2c0,0,0.1,0.1,0.2,0c-0.2-0.1-0.4-0.2-0.5-0.4c-0.1,0,0-0.1-0.1-0.1l0,0
		c-0.1-0.1,0-0.2-0.1-0.2c0,0-0.1,0,0-0.1c-0.1-0.1-0.1-0.1-0.2-0.1c0.1,0,0.1,0,0.2,0c-0.1,0-0.1-0.1-0.2,0c0-0.1-0.2-0.1-0.3-0.2
		l-0.2-0.3c0,0,0.1-0.1,0.2,0l0,0l-0.1-0.1c0,0,0,0,0,0c0-0.1-0.1,0-0.2,0c0,0,0,0,0,0c-0.1,0-0.1-0.2-0.2-0.2l-0.1-0.2
		c0.1,0,0.1,0,0.2,0c0-0.1-0.1-0.1-0.2-0.1l0,0l-0.1-0.1c0,0,0.1,0,0.1,0c0-0.2-0.3,0-0.2-0.2l-0.1-0.2c0,0,0,0,0,0
		c-0.1-0.1-0.2-0.1-0.1-0.2c0,0,0,0-0.1,0c0.1-0.1-0.1-0.1,0-0.1c-0.3-0.2-0.6-0.5-0.8-0.8c0.1,0,0.2,0.1,0.2,0.2
		c0.2-0.1,0.3,0.1,0.5,0.2c-0.1-0.2-0.2-0.3-0.3-0.4c-0.1,0.1-0.1-0.1-0.2,0l-0.1-0.1l0.1,0c0,0,0,0,0,0c0.2-0.1-0.1-0.1-0.1-0.3h0
		c-0.1,0,0,0,0,0c0,0,0-0.1-0.1,0l0,0c0-0.1-0.1,0-0.2-0.2c-0.2-0.1-0.4-0.1-0.6-0.2l0,0.1c-0.1,0-0.2-0.1-0.2-0.2
		c0.2,0.1,0.4,0,0.5,0.2c0.1,0,0.1,0.1,0.2,0c0.1-0.1,0-0.2-0.1-0.2c-0.1,0-0.2-0.1-0.3-0.2c-0.3,0.1-0.3-0.3-0.6-0.2l-0.2-0.2
		c0.2,0.1,0.4,0.2,0.6,0.2c0,0.1,0.1,0,0.1,0.1c0.1-0.1-0.1-0.1-0.1-0.2c-0.1,0,0-0.1-0.1-0.1c-0.1,0-0.2-0.2-0.3-0.2
		c0-0.1-0.2-0.1-0.2-0.2l-0.1,0l0.1,0c-0.1-0.2-0.4-0.1-0.6-0.2c-0.1,0.1-0.3-0.1-0.4-0.2c0.1,0.1,0.2,0.1,0.3,0.1
		c0,0,0.2,0.1,0.2,0.1c0,0,0.1,0,0.2,0c-0.2,0-0.3-0.1-0.5-0.2c-0.1,0-0.2-0.1-0.2-0.2c-0.2-0.1-0.5-0.2-0.6-0.4h-0.1c0,0,0,0,0,0
		c-0.2,0-0.2-0.2-0.4-0.3c0,0,0,0,0,0c-0.1,0-0.2-0.1-0.2,0l0,0.1c-0.1,0-0.1-0.1-0.2-0.1c0.1-0.1,0.2,0,0.2-0.1
		c-0.1,0-0.2-0.1-0.3-0.2c0.1,0,0.1,0.1,0.2,0l0,0.1c0,0,0-0.1,0-0.1c-0.1-0.1-0.3-0.3-0.5-0.4h-0.1c0-0.1-0.1,0-0.1-0.1
		c0-0.1-0.1-0.1-0.2-0.1c0,0,0,0,0,0c0,0-0.1,0-0.1,0c0,0,0,0,0,0c-0.1,0-0.3-0.4-0.5-0.3l0,0c-0.1-0.1-0.3-0.2-0.4-0.3
		c-0.1,0-0.2-0.1-0.2-0.1l0.1,0l-0.2-0.1c-0.1,0,0,0,0,0c-0.2-0.3-0.6-0.3-0.8-0.6c-0.2,0-0.4-0.2-0.5-0.3c-0.1-0.1-0.3-0.2-0.3-0.3
		c-0.2-0.1-0.4-0.1-0.5-0.2h-0.1l0,0c0-0.1-0.1-0.1-0.2-0.1l0,0c0-0.1-0.2-0.1-0.3-0.1l0,0c-0.2-0.1-0.4-0.3-0.5-0.4
		c-0.1,0-0.1,0-0.2,0l0.1,0c0-0.2-0.2-0.1-0.3-0.2l0,0c-0.1-0.1-0.3-0.2-0.4-0.2c0-0.1-0.1-0.1-0.2-0.2c-0.2,0-0.4-0.2-0.6-0.3
		c-0.2-0.2-0.4-0.2-0.6-0.4c-0.9-0.2-1.5-0.6-2.4-0.8c-0.1-0.2-0.3,0-0.4-0.2c-0.1,0.1-0.2-0.1-0.2,0l0,0.1c-0.3-0.1-0.7,0-1-0.1
		c-0.1,0-0.3-0.1-0.4-0.1l-0.3,0c-0.1-0.1-0.2-0.1-0.3-0.1l-0.3-0.3l0,0c-0.2-0.3,0.3-0.5,0.4-0.7c0.1,0,0.1-0.1,0.2-0.2
		c0.5-0.4,0.8-0.9,1.4-1.3c0,0,0.1-0.1,0.2-0.2c0,0,0,0-0.1,0c0.7-0.4,1-1,1.6-1.4c0.1-0.2,0.4-0.3,0.5-0.6c0.1-0.1,0.1-0.2,0.2-0.3
		c0,0-0.1,0-0.1,0c0.2-0.3,0.3-0.7,0.6-0.9c0-0.1,0.1-0.1,0.1-0.1c0.1,0,0.1,0.1,0.2,0c0.3-0.5,1-0.5,1.4-0.9
		c0.1-0.1,0.2-0.1,0.3-0.2c0.1,0.1,0.2,0,0.4,0c0.2-0.2,0.5-0.1,0.7-0.3c0.2,0,0.5-0.1,0.6-0.3c0.1-0.1,0.2,0,0.3-0.2
		c0.1,0,0.3,0,0.5-0.1C65.4,32.2,66,32.1,66.2,32.7L66.2,32.7z"/>
	<path fill="#E63027" d="M29.8,32.6c-0.1,0,0,0.1-0.1,0.2c-0.1,0-0.1,0-0.1-0.1c0.1,0,0-0.1,0-0.1L29.8,32.6L29.8,32.6z"/>
	<path fill="#FFFFFF" d="M30.4,32.8c-0.1,0-0.2,0.1-0.2,0.1C30.2,32.9,30.3,32.8,30.4,32.8L30.4,32.8z"/>
	<path fill="#E63027" d="M33.9,33.1l-0.2-0.1C33.8,33,33.9,33,33.9,33.1L33.9,33.1z"/>
	<path fill="#E63027" d="M33.6,33.3c0.1-0.1,0.1,0.1,0.2,0.1c-0.1,0-0.2-0.1-0.3-0.2L33.6,33.3L33.6,33.3z"/>
	<path fill="#E63027" d="M33.7,33.5l0.2,0L33.7,33.5z"/>
	<path fill="#E63027" d="M33.9,33.6L33.9,33.6c-0.1,0.1-0.1,0-0.2-0.1C33.8,33.6,33.8,33.6,33.9,33.6L33.9,33.6z"/>
	<polygon fill="#FFFFFF" points="35.5,40 35.6,40 35.6,40 	"/>
</g>
</svg>
