<?xml version="1.0" encoding="UTF-8"?>
<svg id="Ebene_2" data-name="Ebene 2" xmlns="http://www.w3.org/2000/svg" viewBox="0 0 1430.65 652.81">
  <g id="Ebene_1-2" data-name="Ebene 1">
    <polyline points="18.18 414.51 1409.69 414.51 1409.69 92.18 19.2 92.18 19.2 414.51" fill="none" stroke="#ff86fb" stroke-width="2"/>
    <line y1="92.18" x2="19.95" y2="92.18" fill="none" stroke="#ff86fb" stroke-width="2"/>
    <line y1="112.69" x2="19.95" y2="112.69" fill="none" stroke="#ff86fb" stroke-width="2"/>
    <line x1="1410.7" y1="92.18" x2="1430.65" y2="92.18" fill="none" stroke="#ff86fb" stroke-width="2"/>
    <line x1="19.95" y1="112.69" x2="1430.65" y2="112.69" fill="none" stroke="#ff86fb" stroke-width="2"/>
    <line x1="19.95" y1="167.5" x2="1410.7" y2="167.5" fill="none" stroke="#ff86fb" stroke-width="2"/>
    <polyline points="19.95 365.23 721.41 365.23 721.41 167.5" fill="none" stroke="#ff86fb" stroke-width="2"/>
    <polyline points="1071.78 167.5 1071.78 365.23 1410.7 365.23" fill="none" stroke="#ff86fb" stroke-width="2"/>
    <line x1="324.5" y1="167.5" x2="324.5" y2="365.23" fill="none" stroke="#ff86fb" stroke-width="2"/>
    <line x1="424.2" y1="166.48" x2="424.2" y2="366.25" fill="none" stroke="#ff86fb" stroke-width="2"/>
    <line x1="522.89" y1="166.48" x2="522.89" y2="366.25" fill="none" stroke="#ff86fb" stroke-width="2"/>
    <line x1="621.57" y1="167.5" x2="621.57" y2="365.23" fill="none" stroke="#ff86fb" stroke-width="2"/>
    <line x1="323.48" y1="206.95" x2="722.43" y2="206.95" fill="none" stroke="#ff86fb" stroke-width="2"/>
    <line x1="34.55" y1="112.69" x2="34.55" y2="167.5" fill="none" stroke="#ff86fb" stroke-width="2"/>
    <line x1="362.71" y1="112.69" x2="362.71" y2="167.5" fill="none" stroke="#ff86fb" stroke-width="2"/>
    <line x1="690.87" y1="112.69" x2="690.87" y2="167.5" fill="none" stroke="#ff86fb" stroke-width="2"/>
    <line x1="1003.4" y1="112.69" x2="1003.4" y2="167.5" fill="none" stroke="#ff86fb" stroke-width="2"/>
    <line x1="159.57" y1="112.69" x2="159.57" y2="167.5" fill="none" stroke="#ff86fb" stroke-width="2"/>
    <line x1="487.72" y1="112.69" x2="487.72" y2="167.5" fill="none" stroke="#ff86fb" stroke-width="2"/>
    <line x1="815.88" y1="112.69" x2="815.88" y2="167.5" fill="none" stroke="#ff86fb" stroke-width="2"/>
    <line x1="1128.41" y1="112.69" x2="1128.41" y2="167.5" fill="none" stroke="#ff86fb" stroke-width="2"/>
    <line x1="237.7" y1="112.69" x2="237.7" y2="167.5" fill="none" stroke="#ff86fb" stroke-width="2"/>
    <line x1="565.85" y1="112.69" x2="565.85" y2="167.5" fill="none" stroke="#ff86fb" stroke-width="2"/>
    <line x1="894.01" y1="112.69" x2="894.01" y2="167.5" fill="none" stroke="#ff86fb" stroke-width="2"/>
    <line x1="1206.54" y1="112.69" x2="1206.54" y2="167.5" fill="none" stroke="#ff86fb" stroke-width="2"/>
    <line x1="97.06" y1="112.69" x2="97.06" y2="167.5" fill="none" stroke="#ff86fb" stroke-width="2"/>
    <line x1="425.22" y1="112.69" x2="425.22" y2="167.5" fill="none" stroke="#ff86fb" stroke-width="2"/>
    <line x1="753.37" y1="112.69" x2="753.37" y2="167.5" fill="none" stroke="#ff86fb" stroke-width="2"/>
    <line x1="1065.9" y1="112.69" x2="1065.9" y2="167.5" fill="none" stroke="#ff86fb" stroke-width="2"/>
    <line x1="222.07" y1="112.69" x2="222.07" y2="167.5" fill="none" stroke="#ff86fb" stroke-width="2"/>
    <line x1="550.23" y1="112.69" x2="550.23" y2="167.5" fill="none" stroke="#ff86fb" stroke-width="2"/>
    <line x1="878.38" y1="112.69" x2="878.38" y2="167.5" fill="none" stroke="#ff86fb" stroke-width="2"/>
    <line x1="1190.91" y1="112.69" x2="1190.91" y2="167.5" fill="none" stroke="#ff86fb" stroke-width="2"/>
    <line x1="300.2" y1="112.69" x2="300.2" y2="167.5" fill="none" stroke="#ff86fb" stroke-width="2"/>
    <line x1="628.36" y1="112.69" x2="628.36" y2="167.5" fill="none" stroke="#ff86fb" stroke-width="2"/>
    <line x1="956.52" y1="112.69" x2="956.52" y2="167.5" fill="none" stroke="#ff86fb" stroke-width="2"/>
    <line x1="1269.05" y1="112.69" x2="1269.05" y2="167.5" fill="none" stroke="#ff86fb" stroke-width="2"/>
    <line x1="1347.18" y1="112.69" x2="1347.18" y2="167.5" fill="none" stroke="#ff86fb" stroke-width="2"/>
    <line x1="50.18" y1="112.69" x2="50.18" y2="167.5" fill="none" stroke="#ff86fb" stroke-width="2"/>
    <line x1="378.34" y1="112.69" x2="378.34" y2="167.5" fill="none" stroke="#ff86fb" stroke-width="2"/>
    <line x1="706.49" y1="112.69" x2="706.49" y2="167.5" fill="none" stroke="#ff86fb" stroke-width="2"/>
    <line x1="1019.02" y1="112.69" x2="1019.02" y2="167.5" fill="none" stroke="#ff86fb" stroke-width="2"/>
    <line x1="175.19" y1="112.69" x2="175.19" y2="167.5" fill="none" stroke="#ff86fb" stroke-width="2"/>
    <line x1="503.35" y1="112.69" x2="503.35" y2="167.5" fill="none" stroke="#ff86fb" stroke-width="2"/>
    <line x1="831.5" y1="112.69" x2="831.5" y2="167.5" fill="none" stroke="#ff86fb" stroke-width="2"/>
    <line x1="1144.03" y1="112.69" x2="1144.03" y2="167.5" fill="none" stroke="#ff86fb" stroke-width="2"/>
    <line x1="253.32" y1="112.69" x2="253.32" y2="167.5" fill="none" stroke="#ff86fb" stroke-width="2"/>
    <line x1="581.48" y1="112.69" x2="581.48" y2="167.5" fill="none" stroke="#ff86fb" stroke-width="2"/>
    <line x1="909.64" y1="112.69" x2="909.64" y2="167.5" fill="none" stroke="#ff86fb" stroke-width="2"/>
    <line x1="1222.17" y1="112.69" x2="1222.17" y2="167.5" fill="none" stroke="#ff86fb" stroke-width="2"/>
    <line x1="112.69" y1="112.69" x2="112.69" y2="167.5" fill="none" stroke="#ff86fb" stroke-width="2"/>
    <line x1="440.84" y1="112.69" x2="440.84" y2="167.5" fill="none" stroke="#ff86fb" stroke-width="2"/>
    <line x1="769" y1="112.69" x2="769" y2="167.5" fill="none" stroke="#ff86fb" stroke-width="2"/>
    <line x1="1081.53" y1="112.69" x2="1081.53" y2="167.5" fill="none" stroke="#ff86fb" stroke-width="2"/>
    <line x1="237.7" y1="112.69" x2="237.7" y2="167.5" fill="none" stroke="#ff86fb" stroke-width="2"/>
    <line x1="565.85" y1="112.69" x2="565.85" y2="167.5" fill="none" stroke="#ff86fb" stroke-width="2"/>
    <line x1="894.01" y1="112.69" x2="894.01" y2="167.5" fill="none" stroke="#ff86fb" stroke-width="2"/>
    <line x1="1206.54" y1="112.69" x2="1206.54" y2="167.5" fill="none" stroke="#ff86fb" stroke-width="2"/>
    <line x1="315.83" y1="112.69" x2="315.83" y2="167.5" fill="none" stroke="#ff86fb" stroke-width="2"/>
    <line x1="643.99" y1="112.69" x2="643.99" y2="167.5" fill="none" stroke="#ff86fb" stroke-width="2"/>
    <line x1="972.14" y1="112.69" x2="972.14" y2="167.5" fill="none" stroke="#ff86fb" stroke-width="2"/>
    <line x1="1284.67" y1="112.69" x2="1284.67" y2="167.5" fill="none" stroke="#ff86fb" stroke-width="2"/>
    <line x1="1362.81" y1="112.69" x2="1362.81" y2="167.5" fill="none" stroke="#ff86fb" stroke-width="2"/>
    <line x1="65.81" y1="112.69" x2="65.81" y2="167.5" fill="none" stroke="#ff86fb" stroke-width="2"/>
    <line x1="393.96" y1="112.69" x2="393.96" y2="167.5" fill="none" stroke="#ff86fb" stroke-width="2"/>
    <line x1="722.12" y1="112.69" x2="722.12" y2="167.5" fill="none" stroke="#ff86fb" stroke-width="2"/>
    <line x1="1034.65" y1="112.69" x2="1034.65" y2="167.5" fill="none" stroke="#ff86fb" stroke-width="2"/>
    <line x1="190.82" y1="112.69" x2="190.82" y2="167.5" fill="none" stroke="#ff86fb" stroke-width="2"/>
    <line x1="518.97" y1="112.69" x2="518.97" y2="167.5" fill="none" stroke="#ff86fb" stroke-width="2"/>
    <line x1="847.13" y1="112.69" x2="847.13" y2="167.5" fill="none" stroke="#ff86fb" stroke-width="2"/>
    <line x1="1159.66" y1="112.69" x2="1159.66" y2="167.5" fill="none" stroke="#ff86fb" stroke-width="2"/>
    <line x1="268.95" y1="112.69" x2="268.95" y2="167.5" fill="none" stroke="#ff86fb" stroke-width="2"/>
    <line x1="597.11" y1="112.69" x2="597.11" y2="167.5" fill="none" stroke="#ff86fb" stroke-width="2"/>
    <line x1="925.26" y1="112.69" x2="925.26" y2="167.5" fill="none" stroke="#ff86fb" stroke-width="2"/>
    <line x1="1237.79" y1="112.69" x2="1237.79" y2="167.5" fill="none" stroke="#ff86fb" stroke-width="2"/>
    <line x1="128.31" y1="112.69" x2="128.31" y2="167.5" fill="none" stroke="#ff86fb" stroke-width="2"/>
    <line x1="456.47" y1="112.69" x2="456.47" y2="167.5" fill="none" stroke="#ff86fb" stroke-width="2"/>
    <line x1="784.63" y1="112.69" x2="784.63" y2="167.5" fill="none" stroke="#ff86fb" stroke-width="2"/>
    <line x1="1097.15" y1="112.69" x2="1097.15" y2="167.5" fill="none" stroke="#ff86fb" stroke-width="2"/>
    <line x1="253.32" y1="112.69" x2="253.32" y2="167.5" fill="none" stroke="#ff86fb" stroke-width="2"/>
    <line x1="581.48" y1="112.69" x2="581.48" y2="167.5" fill="none" stroke="#ff86fb" stroke-width="2"/>
    <line x1="909.64" y1="112.69" x2="909.64" y2="167.5" fill="none" stroke="#ff86fb" stroke-width="2"/>
    <line x1="1222.17" y1="112.69" x2="1222.17" y2="167.5" fill="none" stroke="#ff86fb" stroke-width="2"/>
    <line x1="331.46" y1="112.69" x2="331.46" y2="167.5" fill="none" stroke="#ff86fb" stroke-width="2"/>
    <line x1="659.61" y1="112.69" x2="659.61" y2="167.5" fill="none" stroke="#ff86fb" stroke-width="2"/>
    <line x1="987.77" y1="112.69" x2="987.77" y2="167.5" fill="none" stroke="#ff86fb" stroke-width="2"/>
    <line x1="1300.3" y1="112.69" x2="1300.3" y2="167.5" fill="none" stroke="#ff86fb" stroke-width="2"/>
    <line x1="1378.43" y1="112.69" x2="1378.43" y2="167.5" fill="none" stroke="#ff86fb" stroke-width="2"/>
    <line x1="81.43" y1="112.69" x2="81.43" y2="167.5" fill="none" stroke="#ff86fb" stroke-width="2"/>
    <line x1="409.59" y1="112.69" x2="409.59" y2="167.5" fill="none" stroke="#ff86fb" stroke-width="2"/>
    <line x1="737.75" y1="112.69" x2="737.75" y2="167.5" fill="none" stroke="#ff86fb" stroke-width="2"/>
    <line x1="1050.28" y1="112.69" x2="1050.28" y2="167.5" fill="none" stroke="#ff86fb" stroke-width="2"/>
    <line x1="206.44" y1="112.69" x2="206.44" y2="167.5" fill="none" stroke="#ff86fb" stroke-width="2"/>
    <line x1="534.6" y1="112.69" x2="534.6" y2="167.5" fill="none" stroke="#ff86fb" stroke-width="2"/>
    <line x1="862.76" y1="112.69" x2="862.76" y2="167.5" fill="none" stroke="#ff86fb" stroke-width="2"/>
    <line x1="1175.29" y1="112.69" x2="1175.29" y2="167.5" fill="none" stroke="#ff86fb" stroke-width="2"/>
    <line x1="284.58" y1="112.69" x2="284.58" y2="167.5" fill="none" stroke="#ff86fb" stroke-width="2"/>
    <line x1="612.73" y1="112.69" x2="612.73" y2="167.5" fill="none" stroke="#ff86fb" stroke-width="2"/>
    <line x1="940.89" y1="112.69" x2="940.89" y2="167.5" fill="none" stroke="#ff86fb" stroke-width="2"/>
    <line x1="1253.42" y1="112.69" x2="1253.42" y2="167.5" fill="none" stroke="#ff86fb" stroke-width="2"/>
    <line x1="1331.55" y1="112.69" x2="1331.55" y2="167.5" fill="none" stroke="#ff86fb" stroke-width="2"/>
    <line x1="143.94" y1="112.69" x2="143.94" y2="167.5" fill="none" stroke="#ff86fb" stroke-width="2"/>
    <line x1="472.1" y1="112.69" x2="472.1" y2="167.5" fill="none" stroke="#ff86fb" stroke-width="2"/>
    <line x1="800.25" y1="112.69" x2="800.25" y2="167.5" fill="none" stroke="#ff86fb" stroke-width="2"/>
    <line x1="1112.78" y1="112.69" x2="1112.78" y2="167.5" fill="none" stroke="#ff86fb" stroke-width="2"/>
    <line x1="268.95" y1="112.69" x2="268.95" y2="167.5" fill="none" stroke="#ff86fb" stroke-width="2"/>
    <line x1="597.11" y1="112.69" x2="597.11" y2="167.5" fill="none" stroke="#ff86fb" stroke-width="2"/>
    <line x1="925.26" y1="112.69" x2="925.26" y2="167.5" fill="none" stroke="#ff86fb" stroke-width="2"/>
    <line x1="1237.79" y1="112.69" x2="1237.79" y2="167.5" fill="none" stroke="#ff86fb" stroke-width="2"/>
    <line x1="347.08" y1="112.69" x2="347.08" y2="167.5" fill="none" stroke="#ff86fb" stroke-width="2"/>
    <line x1="675.24" y1="112.69" x2="675.24" y2="167.5" fill="none" stroke="#ff86fb" stroke-width="2"/>
    <line x1="1003.4" y1="112.69" x2="1003.4" y2="167.5" fill="none" stroke="#ff86fb" stroke-width="2"/>
    <line x1="1315.93" y1="112.69" x2="1315.93" y2="167.5" fill="none" stroke="#ff86fb" stroke-width="2"/>
    <line x1="1394.06" y1="112.69" x2="1394.06" y2="167.5" fill="none" stroke="#ff86fb" stroke-width="2"/>
    <line x1="721.41" y1="366.25" x2="721.41" y2="414.51" fill="none" stroke="#ff86fb" stroke-width="2"/>
    <line x1="1071.78" y1="366.25" x2="1071.78" y2="414.51" fill="none" stroke="#ff86fb" stroke-width="2"/>
    <polyline points="927.3 415.53 927.3 247.09 1023.21 247.09 1023.21 414.51" fill="none" stroke="#ff86fb" stroke-width="2"/>
    <rect x="753.37" y="206.95" width="131.22" height="131.22" fill="none" stroke="#ff86fb" stroke-width="2"/>
    <rect x="1213.92" y="192.27" width="146.81" height="31.22" fill="#ff86fb"/>
    <rect x="1213.92" y="192.27" width="146.81" height="31.22" fill="none" stroke="#ff86fb" stroke-width="2"/>
    <rect x="1129.43" y="249.47" width="55.09" height="64.75" fill="none" stroke="#ff86fb" stroke-width="2"/>
    <rect x="1213.92" y="249.47" width="55.09" height="64.75" fill="none" stroke="#ff86fb" stroke-width="2"/>
    <rect x="1305.64" y="249.47" width="55.09" height="64.75" fill="none" stroke="#ff86fb" stroke-width="2"/>
    <g>
      <path d="M1410.67,80.74h-47.82V2.36h-12.74v89.05h60.56v-10.67ZM1341.13,80.74h-47.82V2.36h-12.74v89.05h60.56v-10.67ZM1214.75,54.82l15.11-39.19h.26l13.93,39.19h-29.3ZM1237.73,2.36h-14.45l-35.47,89.05h13.14l9.85-25.92h37.83l9.33,25.92h13.92l-34.16-89.05ZM1174.71,58.67c-1.75,6.62-3.9,11.53-6.44,14.76-5.08,6.45-12.18,9.67-21.28,9.67-9.72,0-17.23-3.12-22.53-9.36-5.3-6.24-7.95-15.11-7.95-26.61s2.76-20.23,8.28-26.73c5.52-6.49,13.14-9.74,22.86-9.74,8.41,0,15.02,2.28,19.84,6.82,2.63,2.48,4.73,6.37,6.31,11.66h12.35c-1.75-9.34-5.96-16.54-12.61-21.58-6.66-5.04-15.33-7.57-26.01-7.57-13.49,0-24.22,4.24-32.19,12.71-7.97,8.48-11.95,19.91-11.95,34.29s3.83,25.67,11.49,34.11c7.66,8.43,17.97,12.65,30.94,12.65s23.38-4.05,31-12.15c4.03-4.22,7.14-10.58,9.33-19.1.44-1.65.74-2.93.92-3.85h-12.35ZM1077.37,2.36h-12.35v71.94L1017.66,2.36h-15.17v89.05h12.35V19.47l48.15,71.94h14.38V2.36ZM990.82,80.74h-56.88v-29.77h51.63v-10.67h-51.63V13.02h55.96V2.36h-68.71v89.05h69.62v-10.67ZM877.7,43.53h-25.35V12.65h25.88c12.44,0,18.66,4.96,18.66,14.88,0,10.67-6.39,16-19.18,16M902.4,9.3c-5.08-4.63-11.87-6.95-20.36-6.95h-42.43v89.05h12.74v-37.58h29.69c8.41,0,15.17-2.38,20.3-7.13,5.12-4.75,7.68-11.06,7.68-18.91s-2.54-13.85-7.62-18.48M804.19,73.18c-6,6.62-13.95,9.92-23.84,9.92s-17.85-3.31-23.84-9.92c-6-6.61-9-15.38-9-26.29s3-19.68,9-26.29c6-6.61,13.95-9.92,23.84-9.92s17.84,3.33,23.84,9.98c6,6.66,9,15.44,9,26.36s-3,19.56-9,26.17M822.19,26.11c-2.76-6.41-6.5-11.68-11.23-15.81-7.88-6.86-18.09-10.3-30.61-10.3-13.84,0-24.96,4.3-33.37,12.9-8.41,8.6-12.61,19.93-12.61,33.98s4.2,25.39,12.61,33.98c8.41,8.6,19.53,12.9,33.37,12.9s25.07-4.32,33.43-12.96c8.36-8.64,12.55-20.2,12.55-34.67,0-6.95-1.38-13.62-4.14-20.03" fill="#ff86fb"/>
      <path d="M1391.05,515.75c-3.42,3.6-7.88,5.4-13.4,5.4s-10.18-1.84-13.73-5.52c-3.55-3.68-5.32-8.37-5.32-14.08s1.75-10.05,5.25-13.52c3.5-3.47,8.06-5.21,13.66-5.21s10,1.74,13.46,5.21c3.46,3.47,5.19,7.98,5.19,13.52,0,5.87-1.71,10.6-5.12,14.2M1400.32,480.96c-5.21-5.29-11.72-7.94-19.51-7.94-3.5,0-7.22.58-11.17,1.74l21.28-33.36h-13.79l-22.6,35.47c-5.6,8.77-8.41,16.91-8.41,24.43,0,8.52,2.96,15.59,8.87,21.21,5.91,5.62,13.38,8.43,22.4,8.43s16.18-2.87,22.01-8.62c5.82-5.75,8.74-12.92,8.74-21.52,0-7.94-2.61-14.55-7.82-19.84M1339.35,518.29h-50.18c.79-3.14,2.28-5.91,4.47-8.31,2.98-3.22,6.79-6.03,11.43-8.43l9.59-4.96c6.92-3.64,12.09-6.78,15.5-9.43,1.66-1.32,3.28-3.1,4.86-5.33,2.89-4.14,4.33-8.89,4.33-14.26,0-7.85-2.72-14.18-8.14-18.98-5.43-4.79-12.53-7.19-21.28-7.19-12.44,0-21.33,4.18-26.67,12.53-2.45,3.8-3.94,8.56-4.47,14.26-.09,1.82-.18,3.31-.26,4.46h11.56c.44-6.86,1.84-11.91,4.2-15.13,3.07-4.22,7.88-6.33,14.45-6.33,5.6,0,10.05,1.47,13.33,4.4,3.28,2.94,4.93,6.88,4.93,11.84,0,5.29-1.8,9.47-5.39,12.53-2.1,1.82-5.96,4.26-11.56,7.32l-12.22,6.7c-10.16,5.54-16.68,12.86-19.57,21.95-.96,3.06-1.66,7.28-2.1,12.65h63.19v-10.29ZM1238.77,521.15c-12.79,0-19.18-11.66-19.18-34.98s6.44-34.98,19.31-34.98,19.31,11.7,19.31,35.1-6.48,34.85-19.44,34.85M1262.29,453.05c-5.52-7.77-13.27-11.66-23.25-11.66s-18,3.89-23.52,11.66c-5.52,7.77-8.28,18.9-8.28,33.36s2.76,25.2,8.28,32.93c5.52,7.73,13.31,11.6,23.38,11.6s17.97-3.91,23.45-11.72c5.47-7.81,8.21-18.92,8.21-33.3s-2.76-25.09-8.28-32.87M1199.38,518.29h-50.18c.79-3.14,2.28-5.91,4.47-8.31,2.97-3.22,6.78-6.03,11.43-8.43l9.59-4.96c6.92-3.64,12.09-6.78,15.5-9.43,1.66-1.32,3.28-3.1,4.86-5.33,2.89-4.14,4.33-8.89,4.33-14.26,0-7.85-2.72-14.18-8.14-18.98-5.43-4.79-12.53-7.19-21.28-7.19-12.44,0-21.33,4.18-26.67,12.53-2.45,3.8-3.94,8.56-4.47,14.26-.09,1.82-.18,3.31-.26,4.46h11.56c.44-6.86,1.84-11.91,4.2-15.13,3.06-4.22,7.88-6.33,14.45-6.33,5.6,0,10.05,1.47,13.33,4.4,3.28,2.94,4.93,6.88,4.93,11.84,0,5.29-1.8,9.47-5.39,12.53-2.1,1.82-5.96,4.26-11.56,7.32l-12.22,6.7c-10.16,5.54-16.69,12.86-19.58,21.95-.96,3.06-1.66,7.28-2.1,12.65h63.19v-10.29ZM1085.87,439.54l-27.06,42.79-27.06-42.79h-14.84l35.6,53.21v35.84h12.74v-35.84l35.6-53.21h-14.98ZM1005.17,495.84c-1.75,6.62-3.9,11.53-6.44,14.76-5.08,6.45-12.17,9.67-21.28,9.67-9.72,0-17.23-3.12-22.53-9.36-5.3-6.24-7.95-15.11-7.95-26.6s2.76-20.23,8.28-26.73c5.52-6.49,13.14-9.74,22.86-9.74,8.41,0,15.02,2.27,19.84,6.82,2.63,2.48,4.73,6.37,6.31,11.66h12.35c-1.75-9.34-5.96-16.54-12.61-21.58-6.66-5.04-15.33-7.57-26.01-7.57-13.49,0-24.22,4.24-32.19,12.71-7.97,8.48-11.96,19.91-11.96,34.29s3.83,25.67,11.5,34.11c7.66,8.43,17.97,12.65,30.94,12.65s23.38-4.05,31-12.16c4.03-4.22,7.14-10.58,9.33-19.1.44-1.65.74-2.93.92-3.84h-12.35ZM920.59,439.54h-12.35v71.94l-47.36-71.94h-15.17v89.05h12.35v-71.94l48.15,71.94h14.38v-89.05ZM834.05,517.92h-56.88v-29.77h51.63v-10.67h-51.63v-27.29h55.96v-10.66h-68.71v89.05h69.63v-10.67ZM730.24,509.05c-4.82,6.16-11.52,9.24-20.1,9.24h-24.7v-68.46h23.78c9.02,0,15.98,2.91,20.89,8.74,4.9,5.83,7.36,14.04,7.36,24.62s-2.41,19.7-7.22,25.86M739.9,451.38c-7.14-7.9-16.79-11.84-28.97-11.84h-38.23v89.05h37.7c14.45,0,25.14-5.29,32.05-15.88,5.43-8.35,8.14-18.11,8.14-29.27,0-13.48-3.57-24.16-10.71-32.06M661.43,517.92h-9.46v-67.72h9.46v-10.66h-31.66v10.66h9.46v67.72h-9.46v10.67h31.66v-10.67ZM602.62,480.22l-26.93-5.83c-7.44-1.57-11.17-5.41-11.17-11.53,0-4.79,1.86-8.56,5.58-11.29,3.72-2.73,8.91-4.09,15.57-4.09,14.62,0,22.55,6.04,23.78,18.11h11.96c-.53-5.87-1.62-10.37-3.28-13.52-5.17-9.92-15.85-14.88-32.05-14.88-10.51,0-18.78,2.42-24.83,7.26-6.04,4.84-9.06,11.47-9.06,19.91,0,11.33,6.7,18.44,20.1,21.33l19.31,4.22c8.93,1.98,14.62,4.22,17.08,6.7,2.01,2.07,3.02,4.84,3.02,8.31,0,10.5-8.01,15.75-24.04,15.75-17.08,0-25.97-6.95-26.67-20.84h-11.95c.09,6.12,1.14,11.04,3.15,14.76,1.23,2.32,2.8,4.43,4.73,6.32,6.65,6.7,16.46,10.05,29.43,10.05,11.91,0,21.17-2.36,27.78-7.07,6.61-4.71,9.92-11.29,9.92-19.72,0-12.9-7.14-20.88-21.41-23.94M541.92,517.92h-56.88v-29.77h51.63v-10.67h-51.63v-27.29h55.96v-10.66h-68.7v89.05h69.62v-10.67ZM423.62,480.09h-29.56v-30.26h31.79c11.3,0,16.95,4.92,16.95,14.76,0,10.34-6.4,15.5-19.18,15.5M459.62,526.6c-1.93-1.07-3.15-2.13-3.68-3.16-.53-1.03-.88-2.96-1.05-5.77l-.79-16.12c-.26-4.79-1.18-8.37-2.76-10.73-1.58-2.36-4.42-4.36-8.54-6.02,3.76-2.23,6.52-4.34,8.28-6.33,3.24-3.8,4.86-8.72,4.86-14.76,0-16.12-10.33-24.18-31-24.18h-43.61v89.05h12.74v-38.2h30.87c6.22,0,10.6,1.37,13.14,4.09,1.58,1.74,2.63,3.84,3.15,6.32.26,1.41.44,3.72.53,6.95.09,6.12.53,11.62,1.31,16.5.26,1.66.57,3.1.92,4.34h15.63v-1.98ZM337.97,439.54h-76.59v10.66h31.92v78.39h12.74v-78.39h31.92v-10.66ZM215.45,492l15.11-39.19h.26l13.93,39.19h-29.3ZM238.44,439.54h-14.45l-35.47,89.05h13.14l9.85-25.92h37.83l9.33,25.92h13.92l-34.16-89.05ZM126.37,492l15.11-39.19h.26l13.92,39.19h-29.3ZM149.36,439.54h-14.45l-35.47,89.05h13.14l9.85-25.92h37.83l9.33,25.92h13.93l-34.16-89.05ZM74.67,480.22l-26.93-5.83c-7.44-1.57-11.17-5.41-11.17-11.53,0-4.79,1.86-8.56,5.58-11.29,3.72-2.73,8.91-4.09,15.57-4.09,14.62,0,22.55,6.04,23.78,18.11h11.96c-.53-5.87-1.62-10.37-3.28-13.52-5.17-9.92-15.85-14.88-32.05-14.88-10.51,0-18.78,2.42-24.83,7.26-6.04,4.84-9.06,11.47-9.06,19.91,0,11.33,6.7,18.44,20.1,21.33l19.31,4.22c8.93,1.98,14.62,4.22,17.08,6.7,2.01,2.07,3.02,4.84,3.02,8.31,0,10.5-8.01,15.75-24.04,15.75-17.08,0-25.97-6.95-26.67-20.84h-11.95c.09,6.12,1.14,11.04,3.15,14.76,1.23,2.32,2.8,4.43,4.73,6.32,6.65,6.7,16.46,10.05,29.43,10.05,11.91,0,21.17-2.36,27.78-7.07,6.61-4.71,9.92-11.29,9.92-19.72,0-12.9-7.14-20.88-21.41-23.94" fill="#ff86fb"/>
      <path d="M1303.55,561.4h-76.59v10.67h31.92v78.39h12.74v-78.39h31.92v-10.67ZM1205.27,630.92c-4.82,6.16-11.52,9.24-20.1,9.24h-24.7v-68.46h23.78c9.02,0,15.98,2.91,20.89,8.74,4.9,5.83,7.36,14.04,7.36,24.62s-2.41,19.7-7.22,25.86M1214.93,573.24c-7.14-7.9-16.79-11.84-28.97-11.84h-38.23v89.05h37.7c14.45,0,25.13-5.29,32.05-15.88,5.43-8.35,8.15-18.11,8.15-29.27,0-13.48-3.57-24.16-10.71-32.06M1081.6,613.86l15.11-39.19h.26l13.92,39.19h-29.3ZM1104.59,561.4h-14.45l-35.47,89.05h13.14l9.85-25.92h37.83l9.33,25.92h13.93l-34.16-89.05ZM1066.47,561.4h-76.59v10.67h31.92v78.39h12.74v-78.39h31.92v-10.67ZM964.83,602.08l-26.93-5.83c-7.45-1.57-11.17-5.42-11.17-11.53,0-4.79,1.86-8.56,5.58-11.29,3.72-2.73,8.91-4.09,15.57-4.09,14.62,0,22.55,6.04,23.78,18.11h11.95c-.53-5.87-1.62-10.38-3.28-13.52-5.17-9.92-15.85-14.88-32.05-14.88-10.51,0-18.79,2.42-24.83,7.25-6.04,4.84-9.06,11.47-9.06,19.91,0,11.33,6.7,18.44,20.1,21.33l19.31,4.22c8.93,1.98,14.62,4.22,17.08,6.7,2.01,2.07,3.02,4.84,3.02,8.31,0,10.5-8.01,15.75-24.04,15.75-17.08,0-25.97-6.95-26.67-20.84h-11.95c.08,6.12,1.14,11.04,3.15,14.76,1.23,2.32,2.8,4.42,4.73,6.32,6.66,6.7,16.46,10.05,29.43,10.05,11.91,0,21.17-2.36,27.79-7.07,6.61-4.71,9.92-11.29,9.92-19.72,0-12.9-7.14-20.88-21.41-23.94M898.22,561.4h-12.35v71.94l-47.36-71.94h-15.17v89.05h12.35v-71.94l48.15,71.94h14.38v-89.05ZM811.68,639.78h-56.88v-29.77h51.63v-10.67h-51.63v-27.29h55.96v-10.67h-68.71v89.05h69.63v-10.67ZM732.78,561.4h-76.59v10.67h31.92v78.39h12.74v-78.39h31.92v-10.67ZM651.2,561.4h-76.59v10.67h31.92v78.39h12.74v-78.39h31.92v-10.67ZM511.62,538.7h11.95v12.65h-11.95v-12.65ZM532.9,538.7h11.95v12.65h-11.95v-12.65ZM559.97,638.42c-3.15,4.63-6.7,7.9-10.64,9.8-6.22,3.06-13.49,4.59-21.81,4.59-10.95,0-19.68-2.89-26.21-8.68-6.53-5.79-9.79-13.56-9.79-23.32v-59.41h12.74v56.06c0,7.94,2.1,14.04,6.31,18.29,4.2,4.26,10.2,6.39,18,6.39s13.81-2.13,18.06-6.39c4.25-4.26,6.37-10.27,6.37-18.05v-56.31h12.74v57.8c0,7.19-1.93,13.6-5.78,19.22M474.3,561.4h-12.74v36.84h-49.26v-36.84h-12.74v89.05h12.74v-41.55h49.26v41.55h12.74v-89.05ZM382.27,561.4h-12.35v71.94l-47.36-71.94h-15.17v89.05h12.35v-71.94l48.15,71.94h14.38v-89.05ZM295.73,639.78h-56.88v-29.77h51.63v-10.67h-51.63v-27.29h55.96v-10.67h-68.71v89.05h69.63v-10.67ZM190.92,602.08l-26.93-5.83c-7.44-1.57-11.17-5.42-11.17-11.53,0-4.79,1.86-8.56,5.58-11.29,3.72-2.73,8.91-4.09,15.57-4.09,14.63,0,22.55,6.04,23.78,18.11h11.95c-.53-5.87-1.62-10.38-3.28-13.52-5.17-9.92-15.85-14.88-32.05-14.88-10.51,0-18.78,2.42-24.83,7.25s-9.06,11.47-9.06,19.91c0,11.33,6.7,18.44,20.1,21.33l19.31,4.22c8.93,1.98,14.62,4.22,17.08,6.7,2.01,2.07,3.02,4.84,3.02,8.31,0,10.5-8.01,15.75-24.04,15.75-17.08,0-25.97-6.95-26.67-20.84h-11.95c.09,6.12,1.14,11.04,3.15,14.76,1.23,2.32,2.8,4.42,4.73,6.32,6.65,6.7,16.46,10.05,29.43,10.05,11.91,0,21.17-2.36,27.78-7.07,6.61-4.71,9.92-11.29,9.92-19.72,0-12.9-7.14-20.88-21.41-23.94M130.69,639.78h-9.46v-67.72h9.46v-10.67h-31.66v10.67h9.46v67.72h-9.46v10.67h31.66v-10.67ZM90.15,639.78h-56.88v-29.77h51.63v-10.67h-51.63v-27.29h55.96v-10.67H20.52v89.05h69.63v-10.67Z" fill="#ff86fb"/>
    </g>
  </g>
</svg>